<?xml version="1.0" encoding="UTF-8"?>
<svg version="1.1" xmlns="http://www.w3.org/2000/svg" width="280" height="305">
<path d="M0 0 C3.68183249 2.64336692 3.68183249 2.64336692 4.4375 5.75 C4.24896451 11.59460034 3.35660697 15.19536217 -0.5625 19.75 C-5.5625 22.75 -5.5625 22.75 -8.5625 22.75 C-8.09199219 23.65621094 -7.62148438 24.56242187 -7.13671875 25.49609375 C0.25399178 39.86790917 4.45217069 51.82289849 -0.5625 68.1875 C-1.20772303 70.04923728 -1.86622873 71.90674614 -2.5625 73.75 C-4.421875 73.49609375 -4.421875 73.49609375 -6.5625 72.75 C-7.828125 70.97265625 -7.828125 70.97265625 -8.8125 68.8125 C-9.14765625 68.10222656 -9.4828125 67.39195312 -9.828125 66.66015625 C-10.5625 64.75 -10.5625 64.75 -10.5625 62.75 C-11.2225 62.75 -11.8825 62.75 -12.5625 62.75 C-16.15977921 55.86976695 -19.32936274 49.19379088 -21.5625 41.75 C-24.60688318 42.42407851 -24.60688318 42.42407851 -25.74658203 44.52294922 C-26.65865202 47.01244727 -26.73650911 48.74221997 -26.6171875 51.3828125 C-26.57549438 52.70865356 -26.57549438 52.70865356 -26.53295898 54.0612793 C-26.50145752 54.98980713 -26.46995605 55.91833496 -26.4375 56.875 C-26.27017657 69.28113771 -28.35480346 76.2402505 -37.0625 85.36328125 C-41.00978156 89.13170162 -45.19304036 92.48737368 -49.5625 95.75 C-50.23796875 96.27980469 -50.9134375 96.80960937 -51.609375 97.35546875 C-54.95128071 99.90474298 -56.22622964 100.75 -60.5625 100.75 C-60.73787193 95.22578426 -60.3604336 90.605119 -59.10595703 85.24047852 C-58.16412866 80.92439979 -57.5660197 76.55827728 -56.9375 72.1875 C-56.8034375 71.27419922 -56.669375 70.36089844 -56.53125 69.41992188 C-56.20538069 67.19702769 -55.88251382 64.97374335 -55.5625 62.75 C-56.92024536 63.06070435 -56.92024536 63.06070435 -58.30541992 63.37768555 C-67.54369366 65.37490952 -76.41156556 66.21616793 -85.875 66.5625 C-96.60495797 67.04638836 -106.14865332 68.3996412 -116.12890625 72.5078125 C-119.54645887 73.74419672 -121.96584785 74.0049245 -125.5625 73.75 C-125.01526317 70.37537285 -124.5076 68.66765 -122.5625 65.75 C-130.26063063 67.8246735 -138.00696172 70.91669258 -142.5625 77.75 C-143.2225 77.75 -143.8825 77.75 -144.5625 77.75 C-145.2225 79.4 -145.8825 81.05 -146.5625 82.75 C-147.2225 82.75 -147.8825 82.75 -148.5625 82.75 C-148.81 83.554375 -149.0575 84.35875 -149.3125 85.1875 C-150.5625 87.75 -150.5625 87.75 -152.5 88.75 C-154.5625 88.75 -154.5625 88.75 -156.25 87.5 C-159.02543449 83.79942068 -158.85491684 80.20935681 -158.5625 75.75 C-157.19050026 70.5242951 -154.89512579 66.0199268 -151.5625 61.75 C-148.6535841 60.78036137 -146.6252267 60.58604828 -143.58984375 60.50390625 C-142.60693359 60.47103516 -141.62402344 60.43816406 -140.61132812 60.40429688 C-138.56454215 60.34390834 -136.51766469 60.2865324 -134.47070312 60.23242188 C-127.95884635 60.0081669 -121.90753691 59.19785647 -115.5625 57.75 C-113.95203917 57.42470878 -112.34136017 57.10049587 -110.73046875 56.77734375 C-93.2127943 53.03716383 -77.12927477 46.84970747 -62.375 36.59765625 C-59.5625 34.75 -59.5625 34.75 -56.75 33.68359375 C-56.028125 33.37550781 -55.30625 33.06742188 -54.5625 32.75 C-54.2325 31.76 -53.9025 30.77 -53.5625 29.75 C-51.88829948 28.57805964 -50.21207983 27.40884625 -48.5234375 26.2578125 C-45.02366056 23.56674896 -42.36456696 20.13738761 -39.5625 16.75 C-32.71979219 8.52700348 -32.71979219 8.52700348 -27.5625 5.75 C-26.61375 4.904375 -25.665 4.05875 -24.6875 3.1875 C-17.74918719 -2.22438399 -8.19829522 -2.87659481 0 0 Z " fill="#99BC7B" transform="translate(264.5625,204.25)"/>
<path d="M0 0 C-3.78251609 11.97436524 -18.99944 21.81746651 -29.66015625 27.39453125 C-50.90853442 37.60866391 -71.23413272 43.73250961 -95 43 C-95 39 -95 39 -93.73754883 37.23583984 C-93.14997803 36.65012207 -92.56240723 36.0644043 -91.95703125 35.4609375 C-91.30202637 34.80279053 -90.64702148 34.14464355 -89.97216797 33.46655273 C-89.25947754 32.77634033 -88.54678711 32.08612793 -87.8125 31.375 C-87.08434082 30.662229 -86.35618164 29.94945801 -85.60595703 29.21508789 C-64.94580316 9.27941615 -41.84277757 -0.32649745 -13.1875 -1.8125 C-12.22610107 -1.86559326 -11.26470215 -1.91868652 -10.27416992 -1.97338867 C-9.37287354 -2.00924072 -8.47157715 -2.04509277 -7.54296875 -2.08203125 C-6.73883545 -2.11530518 -5.93470215 -2.1485791 -5.10620117 -2.18286133 C-3 -2 -3 -2 0 0 Z " fill="#9ABD7C" transform="translate(220,216)"/>
<path d="M0 0 C3.33774668 1.24914467 6.60378949 2.60442308 9.87109375 4.02734375 C10.90878906 4.46046875 11.94648437 4.89359375 13.015625 5.33984375 C20.75848605 8.83854348 28.94635962 14.17787549 32.87109375 22.02734375 C33.17558653 32.74983954 28.46976019 43.11094905 22.87109375 52.02734375 C22.21109375 52.02734375 21.55109375 52.02734375 20.87109375 52.02734375 C20.54109375 53.01734375 20.21109375 54.00734375 19.87109375 55.02734375 C15.81209144 57.49458045 13.44886549 58.25609133 8.71875 57.5703125 C-4.39422374 54.10400336 -16.06326591 48.12399317 -26.12890625 39.02734375 C-26.97775391 38.26164062 -26.97775391 38.26164062 -27.84375 37.48046875 C-30.06400402 34.97002955 -30.20549251 32.23807561 -30.12890625 29.02734375 C-28.62078677 18.08017061 -22.31169655 7.27480652 -15.12890625 -0.97265625 C-10.56228511 -3.25596682 -4.64690102 -1.44454227 0 0 Z M-12.12890625 2.02734375 C-12.45890625 2.68734375 -12.78890625 3.34734375 -13.12890625 4.02734375 C-11.80890625 4.68734375 -10.48890625 5.34734375 -9.12890625 6.02734375 C-9.08636269 8.02689121 -9.08809842 10.02776011 -9.12890625 12.02734375 C-10.12890625 13.02734375 -10.12890625 13.02734375 -12.69140625 13.08984375 C-13.49578125 13.06921875 -14.30015625 13.04859375 -15.12890625 13.02734375 C-15.78890625 11.70734375 -16.44890625 10.38734375 -17.12890625 9.02734375 C-24.09244333 19.50604724 -24.09244333 19.50604724 -25.88671875 31.64453125 C-25.03728486 34.31543163 -24.28349936 35.18881697 -22.06640625 36.83984375 C-21.09703125 37.56171875 -20.12765625 38.28359375 -19.12890625 39.02734375 C-17.80890625 38.36734375 -16.48890625 37.70734375 -15.12890625 37.02734375 C-15.12890625 36.69734375 -15.12890625 36.36734375 -15.12890625 36.02734375 C-17.43890625 35.36734375 -19.74890625 34.70734375 -22.12890625 34.02734375 C-21.79890625 32.37734375 -21.46890625 30.72734375 -21.12890625 29.02734375 C-19.14890625 28.36734375 -17.16890625 27.70734375 -15.12890625 27.02734375 C-14.46890625 28.34734375 -13.80890625 29.66734375 -13.12890625 31.02734375 C-9.7394594 29.33262032 -8.68380006 25.56421202 -7.06640625 22.27734375 C-6.70224609 21.560625 -6.33808594 20.84390625 -5.96289062 20.10546875 C-3.26684812 14.80525595 -3.26684812 14.80525595 -2.12890625 9.02734375 C-5.01019086 5.38336616 -7.70743985 3.41694748 -12.12890625 2.02734375 Z M0.87109375 6.02734375 C2.85109375 7.01734375 2.85109375 7.01734375 4.87109375 8.02734375 C4.54109375 7.36734375 4.21109375 6.70734375 3.87109375 6.02734375 C2.88109375 6.02734375 1.89109375 6.02734375 0.87109375 6.02734375 Z M1.30859375 13.33984375 C-0.35384412 15.07805229 -0.35384412 15.07805229 -1.12890625 18.02734375 C-0.525625 18.053125 0.07765625 18.07890625 0.69921875 18.10546875 C7.30848655 18.57451356 7.30848655 18.57451356 10.43359375 21.08984375 C10.90796875 21.72921875 11.38234375 22.36859375 11.87109375 23.02734375 C12.42796875 22.67671875 12.98484375 22.32609375 13.55859375 21.96484375 C16.44268556 20.79561734 17.9230014 21.17394859 20.87109375 22.02734375 C21.53109375 22.35734375 22.19109375 22.68734375 22.87109375 23.02734375 C22.91363731 25.02689121 22.91190158 27.02776011 22.87109375 29.02734375 C21.87109375 30.02734375 21.87109375 30.02734375 18.80859375 30.08984375 C17.83921875 30.06921875 16.86984375 30.04859375 15.87109375 30.02734375 C15.54109375 31.34734375 15.21109375 32.66734375 14.87109375 34.02734375 C17.7634369 34.85372751 19.75851806 35.02734375 22.87109375 35.02734375 C23.53109375 35.68734375 24.19109375 36.34734375 24.87109375 37.02734375 C27.06635503 32.35048276 28.66912501 28.27853096 28.87109375 23.02734375 C26.74362805 20.21354253 24.30391099 19.20356409 21.0546875 17.984375 C20.12591797 17.63310547 19.19714844 17.28183594 18.24023438 16.91992188 C17.27279297 16.56349609 16.30535156 16.20707031 15.30859375 15.83984375 C14.33728516 15.47181641 13.36597656 15.10378906 12.36523438 14.72460938 C6.69517933 11.95214531 6.69517933 11.95214531 1.30859375 13.33984375 Z M-6.12890625 27.02734375 C-7.33175026 29.10307456 -8.51596326 31.1861747 -9.69140625 33.27734375 C-10.03365234 33.86386719 -10.37589844 34.45039062 -10.72851562 35.0546875 C-12.09237546 37.50687993 -13.13851296 39.41678365 -13.09375 42.26171875 C-9.78235218 48.3214427 -1.1731374 49.8847181 4.87109375 52.02734375 C5.66902344 52.32640625 6.46695313 52.62546875 7.2890625 52.93359375 C10.88914018 54.10344491 12.60465748 54.14006679 16.12109375 52.65234375 C19.57466585 49.3557522 20.97913932 46.39339243 22.87109375 42.02734375 C19.57109375 42.02734375 16.27109375 42.02734375 12.87109375 42.02734375 C12.54109375 43.01734375 12.21109375 44.00734375 11.87109375 45.02734375 C6.74024017 47.89458546 1.39115874 47.53720835 -4.12890625 46.02734375 C-5.03206885 43.0449579 -5.80953412 40.13205975 -6.12890625 37.02734375 C-4.62890625 34.27734375 -4.62890625 34.27734375 -3.12890625 32.02734375 C-3.82375889 29.24510997 -3.82375889 29.24510997 -5.12890625 27.02734375 C-5.45890625 27.02734375 -5.78890625 27.02734375 -6.12890625 27.02734375 Z M2.87109375 35.02734375 C3.20109375 36.67734375 3.53109375 38.32734375 3.87109375 40.02734375 C4.86109375 39.69734375 5.85109375 39.36734375 6.87109375 39.02734375 C5.55109375 37.70734375 4.23109375 36.38734375 2.87109375 35.02734375 Z " fill="#616161" transform="translate(87.12890625,18.97265625)"/>
<path d="M0 0 C5.43155054 0.45262921 8.95630506 2.20878712 12.6875 6.125 C14.75 9.3125 14.75 9.3125 14.8125 12.25 C13.92357235 14.81220323 13.05157113 16.5075303 11.625 18.75 C9.32145349 22.48704847 9.76408566 25.04020451 10.75 29.3125 C10.75 30.3025 10.75 31.2925 10.75 32.3125 C11.41 32.9725 12.07 33.6325 12.75 34.3125 C12.375 36.4375 12.375 36.4375 11.75 38.3125 C12.41 38.3125 13.07 38.3125 13.75 38.3125 C14.01554687 37.70921875 14.28109375 37.1059375 14.5546875 36.484375 C14.90789062 35.68515625 15.26109375 34.8859375 15.625 34.0625 C15.97304687 33.27359375 16.32109375 32.4846875 16.6796875 31.671875 C17.75 29.3125 17.75 29.3125 18.84375 27.34375 C19.9436723 24.87840692 20.16302385 22.74753125 20.375 20.0625 C20.44976562 19.17046875 20.52453125 18.2784375 20.6015625 17.359375 C20.65054688 16.68390625 20.69953125 16.0084375 20.75 15.3125 C22.984375 14.61328125 22.984375 14.61328125 25.75 14.3125 C27.953125 15.60546875 27.953125 15.60546875 30 17.5 C30.68578125 18.11230469 31.3715625 18.72460938 32.078125 19.35546875 C33.8228698 21.39779853 34.35438676 22.68865336 34.75 25.3125 C35.28625 25.374375 35.8225 25.43625 36.375 25.5 C40.46677684 26.89981839 43.86511283 29.54272566 45.8125 33.4375 C45.75 35.3125 45.75 35.3125 44.8125 37.125 C41.43529593 39.06945083 38.50995659 37.99052496 34.75 37.3125 C34.75 37.9725 34.75 38.6325 34.75 39.3125 C32.66870896 40.29600025 30.58488641 41.27414458 28.5 42.25 C27.33984375 42.79527344 26.1796875 43.34054688 24.984375 43.90234375 C19.90982127 46.11480015 15.31125977 46.95121894 9.75 46.3125 C6.75 44.9375 6.75 44.9375 4.75 43.3125 C4.75 42.6525 4.75 41.9925 4.75 41.3125 C4.09 41.3125 3.43 41.3125 2.75 41.3125 C2.625 33.5625 2.625 33.5625 3.75 31.3125 C0.94630567 27.98311298 -1.06402497 26.12248963 -5.3125 25.3125 C-8.50136088 24.66749411 -9.22022792 24.34003918 -11.75 22 C-13.4321125 18.9862151 -13.92538974 17.68944872 -13.25 14.3125 C-11.4177632 11.43327075 -10.24971192 9.67350708 -7 8.5 C-6.4225 8.438125 -5.845 8.37625 -5.25 8.3125 C-5.29125 7.36375 -5.3325 6.415 -5.375 5.4375 C-5.19891441 1.03536037 -4.347837 0.41806125 0 0 Z M2.75 8.3125 C2.42 9.3025 2.09 10.2925 1.75 11.3125 C2.74 11.3125 3.73 11.3125 4.75 11.3125 C4.75 10.3225 4.75 9.3325 4.75 8.3125 C4.09 8.3125 3.43 8.3125 2.75 8.3125 Z M-3.25 16.3125 C-2.92 17.3025 -2.59 18.2925 -2.25 19.3125 C-1.26 18.9825 -0.27 18.6525 0.75 18.3125 C-0.57 17.6525 -1.89 16.9925 -3.25 16.3125 Z M28.75 27.3125 C27.76 29.2925 26.77 31.2725 25.75 33.3125 C28.75384054 32.6170656 28.75384054 32.6170656 31.75 31.3125 C32.71877057 29.28006452 32.71877057 29.28006452 32.75 27.3125 C31.43 27.3125 30.11 27.3125 28.75 27.3125 Z " fill="#4B4B4B" transform="translate(193.25,45.6875)"/>
<path d="M0 0 C1.2065625 0.0309375 1.2065625 0.0309375 2.4375 0.0625 C2.56801758 0.9690332 2.69853516 1.87556641 2.83300781 2.80957031 C3.33127111 6.23283986 3.83945003 9.65435103 4.35400391 13.07519531 C4.57304685 14.5446752 4.78833571 16.01472053 4.99951172 17.48535156 C8.9687419 45.06303615 22.14804385 69.90844318 44.625 87 C46.5503526 88.37138286 48.48654942 89.72778451 50.4375 91.0625 C51.43136719 91.76439453 51.43136719 91.76439453 52.4453125 92.48046875 C61.6108629 98.61067454 72.07376735 103.20788352 82.8515625 105.45703125 C85.54384213 106.08739884 87.93814581 106.87882698 90.4375 108.0625 C91.3125 110.0625 91.3125 110.0625 91.4375 112.0625 C91.1075 112.7225 90.7775 113.3825 90.4375 114.0625 C84.44924942 114.31817811 79.71687285 113.62955255 74.0625 111.6875 C73.29156006 111.42493408 72.52062012 111.16236816 71.72631836 110.8918457 C58.13726405 106.01707706 46.17811903 98.65233842 35.4375 89.0625 C34.35742053 88.20422257 33.27463433 87.3493237 32.1875 86.5 C26.22190158 81.21231049 20.74415395 74.78277319 16.4375 68.0625 C16.4375 67.4025 16.4375 66.7425 16.4375 66.0625 C15.7775 66.0625 15.1175 66.0625 14.4375 66.0625 C8.49647212 56.41209938 4.09619651 46.78224773 0.4375 36.0625 C0.0765625 35.05058594 -0.284375 34.03867188 -0.65625 32.99609375 C-3.80528275 22.80245756 -4.17932707 11.66331868 -3.5625 1.0625 C-2.5625 0.0625 -2.5625 0.0625 0 0 Z " fill="#4B4C4B" transform="translate(25.5625,148.9375)"/>
<path d="M0 0 C1.8125 0.0625 1.8125 0.0625 4 1 C8.58481385 7.11610543 10.61768648 13.82108207 13 21 C13.30164063 21.84820312 13.60328125 22.69640625 13.9140625 23.5703125 C22.91394682 50.38814962 19.00186534 82.85020259 7 108 C4.79914633 111.76112623 2.45761751 115.40210463 0 119 C-1.65 118.67 -3.3 118.34 -5 118 C-5.53805491 112.34601315 -3.79251795 108.88474865 -1.1875 104.0625 C2.94711645 96.20448574 6.27612122 89.02418885 7.625 80.1875 C8.89172862 72.21654275 8.89172862 72.21654275 10 70 C11.52051951 50.13677208 9.72687865 30.43703083 0.8125 12.4375 C-1.03857398 8.36089815 -1.46295024 5.44432227 -1 1 C-0.67 0.67 -0.34 0.34 0 0 Z " fill="#454545" transform="translate(231,95)"/>
<path d="M0 0 C1.85760924 0.09213742 3.7120914 0.24991164 5.5625 0.4375 C9.25858817 0.80184123 12.73605639 1.01236286 16.4375 0.75 C20 1 20 1 22.9375 3.4375 C23.9584375 4.7059375 23.9584375 4.7059375 25 6 C25.33 6.33 25.66 6.66 26 7 C26.54046728 12.12114899 26.79406636 17.30700887 24.4375 22 C22.11323479 24.86063411 21.51166177 25.42696 18.3125 26.625 C16.6728125 27.305625 16.6728125 27.305625 15 28 C14.02389158 30.54051214 14.02389158 30.54051214 14 33 C13.67 33.33 13.34 33.66 13 34 C10.50200568 33.96166006 8.0521338 33.85531465 5.5625 33.6875 C4.86833984 33.65205078 4.17417969 33.61660156 3.45898438 33.58007812 C-1.75831392 33.24168608 -1.75831392 33.24168608 -4 31 C-4.125 28.375 -4.125 28.375 -4 26 C-3.360625 25.731875 -2.72125 25.46375 -2.0625 25.1875 C0.33131686 24.11332248 0.33131686 24.11332248 1 21 C1.22560676 18.60745424 1.40848595 16.21071877 1.5625 13.8125 C1.64628906 12.54019531 1.73007813 11.26789062 1.81640625 9.95703125 C1.87699219 8.98121094 1.93757812 8.00539063 2 7 C1.01 7 0.02 7 -1 7 C-1.04254356 5.00045254 -1.04080783 2.99958364 -1 1 C-0.67 0.67 -0.34 0.34 0 0 Z M13 8 C10.69980639 11.45029042 10.56867485 12.94554358 11 17 C12.485 17.99 12.485 17.99 14 19 C16.18331689 17.23863645 16.18331689 17.23863645 16.1953125 15.0546875 C16.17210937 14.33539063 16.14890625 13.61609375 16.125 12.875 C16.08375 11.59625 16.0425 10.3175 16 9 C15.01 8.67 14.02 8.34 13 8 Z " fill="#444444" transform="translate(136,32)"/>
<path d="M0 0 C4.99695682 2.46181311 8.5028258 6.00565161 11 11 C11.45280074 15.45254066 11.50304378 17.24543433 9 21 C9.99 21.66 10.98 22.32 12 23 C12.5 25.875 12.5 25.875 12 29 C9.5625 31.25 9.5625 31.25 7 33 C6.67 33.66 6.34 34.32 6 35 C5.34 35 4.68 35 4 35 C3.67 35.99 3.34 36.98 3 38 C1.35 37.67 -0.3 37.34 -2 37 C-2.12375 36.2575 -2.2475 35.515 -2.375 34.75 C-3.82481124 28.37083053 -7.83899518 23.88931838 -13 20 C-16.79629289 19.41218275 -16.79629289 19.41218275 -20 20 C-21 19 -21 19 -21.4375 16.8125 C-20.79754871 12.69852745 -18.26678264 10.46278173 -15 8 C-14.34 8 -13.68 8 -13 8 C-12.938125 7.4225 -12.87625 6.845 -12.8125 6.25 C-10.65759508 0.282571 -5.79630512 -0.89942666 0 0 Z M-6 9 C-6.33 9.99 -6.66 10.98 -7 12 C-6.02792965 13.67580052 -6.02792965 13.67580052 -4.5625 15.1875 C-3.716875 16.115625 -2.87125 17.04375 -2 18 C-0.68 17.67 0.64 17.34 2 17 C1.45925627 13.21479387 -0.07572746 11.40822445 -3 9 C-3.99 9 -4.98 9 -6 9 Z " fill="#5B5B5B" transform="translate(52,67)"/>
<path d="M0 0 C0.886875 0.53625 1.77375 1.0725 2.6875 1.625 C3.450625 2.07875 4.21375 2.5325 5 3 C7.03327085 2.1500831 7.03327085 2.1500831 9 1 C12.48883564 1.34037421 14.02819033 2.01879355 17 4 C17.3125 7 17.3125 7 17 10 C15 12 15 12 12.375 12.125 C11.59125 12.08375 10.8075 12.0425 10 12 C10 10.68 10 9.36 10 8 C9.34 8 8.68 8 8 8 C8 10.64 8 13.28 8 16 C10.64 16.33 13.28 16.66 16 17 C15.67 18.65 15.34 20.3 15 22 C8.375 23.125 8.375 23.125 5 22 C5 23.32 5 24.64 5 26 C2.11096499 28.45130243 0.22367293 28.98037957 -3.5625 29.3125 C-8.64485981 28.85046729 -8.64485981 28.85046729 -11 27 C-14.03488372 22.18604651 -14.03488372 22.18604651 -13.9375 18.875 C-12.70766224 16.41532448 -11.02803146 14.83177035 -9 13 C-9.5259375 11.9171875 -9.5259375 11.9171875 -10.0625 10.8125 C-11.12787856 7.61636431 -11.0812528 6.1605851 -10 3 C-7.54361099 -0.95751563 -4.30822952 -0.44567892 0 0 Z M-4 16 C-3.67 17.65 -3.34 19.3 -3 21 C-2.01 20.67 -1.02 20.34 0 20 C-1.32 18.68 -2.64 17.36 -4 16 Z " fill="#2F2F2F" transform="translate(94,38)"/>
<path d="M0 0 C-2.21085093 2.21085093 -7.51554509 1.83363549 -10.62890625 2.16210938 C-12.42833567 2.37533656 -14.21625028 2.68117558 -16 3 C-16.33 3.66 -16.66 4.32 -17 5 C-16.01 5 -15.02 5 -14 5 C-13.75 7.25 -13.75 7.25 -14 10 C-16 12.3125 -16 12.3125 -18 14 C-13.545 13.505 -13.545 13.505 -9 13 C-11.39763185 15.39763185 -12.33273498 15.34280586 -15.625 15.625 C-16.44226563 15.69976562 -17.25953125 15.77453125 -18.1015625 15.8515625 C-18.72804687 15.90054687 -19.35453125 15.94953125 -20 16 C-19.45276317 12.62537285 -18.9451 10.91765 -17 8 C-24.69813063 10.0746735 -32.44446172 13.16669258 -37 20 C-37.66 20 -38.32 20 -39 20 C-39.99 22.475 -39.99 22.475 -41 25 C-41.66 25 -42.32 25 -43 25 C-43.2475 25.804375 -43.495 26.60875 -43.75 27.4375 C-45 30 -45 30 -46.9375 31 C-49 31 -49 31 -50.6875 29.75 C-53.46293449 26.04942068 -53.29241684 22.45935681 -53 18 C-51.62800026 12.7742951 -49.33262579 8.2699268 -46 4 C-43.0910841 3.03036137 -41.0627267 2.83604828 -38.02734375 2.75390625 C-36.55297852 2.70459961 -36.55297852 2.70459961 -35.04882812 2.65429688 C-33.00204215 2.59390834 -30.95516469 2.5365324 -28.90820312 2.48242188 C-22.40880354 2.2585959 -16.33270945 1.4639461 -10 0 C-6.25830842 -0.76219643 -3.64123822 -1.26042862 0 0 Z " fill="#A5C38C" transform="translate(159,262)"/>
<path d="M0 0 C6.82072287 2.56685192 13.36486317 5.57810003 19.80078125 8.9921875 C17.80078125 9.9921875 17.80078125 9.9921875 15.82958984 9.37133789 C15.04406738 9.03094482 14.25854492 8.69055176 13.44921875 8.33984375 C12.5984375 7.97568359 11.74765625 7.61152344 10.87109375 7.23632812 C9.98164062 6.84638672 9.0921875 6.45644531 8.17578125 6.0546875 C7.27859375 5.66861328 6.38140625 5.28253906 5.45703125 4.88476562 C3.23527532 3.92751972 1.01763341 2.96073572 -1.19921875 1.9921875 C1.44078125 3.3121875 4.08078125 4.6321875 6.80078125 5.9921875 C6.47078125 7.3121875 6.14078125 8.6321875 5.80078125 9.9921875 C2.39765387 8.93343676 -0.21275106 7.98316596 -3.19921875 5.9921875 C-2.53921875 6.6521875 -1.87921875 7.3121875 -1.19921875 7.9921875 C-1.39168058 14.06628288 -3.70483756 18.45368958 -6.63671875 23.6796875 C-7.44806911 25.16267702 -8.25927195 26.64574727 -9.0703125 28.12890625 C-9.4305249 28.77561279 -9.7907373 29.42231934 -10.16186523 30.08862305 C-10.88019263 31.4067682 -11.5598108 32.74647027 -12.20727539 34.10083008 C-13.4848396 36.53678625 -15.2016443 38.11946145 -17.19921875 39.9921875 C-17.85921875 40.6521875 -18.51921875 41.3121875 -19.19921875 41.9921875 C-18.86921875 42.6521875 -18.53921875 43.3121875 -18.19921875 43.9921875 C-23.01764892 42.57500216 -26.26004197 39.99762715 -29.19921875 35.9921875 C-31.44023909 29.26912649 -29.35006844 22.41620435 -26.33203125 16.20849609 C-15.29696433 -4.81882393 -15.29696433 -4.81882393 0 0 Z M-12.19921875 1.9921875 C-12.52921875 2.6521875 -12.85921875 3.3121875 -13.19921875 3.9921875 C-11.87921875 4.6521875 -10.55921875 5.3121875 -9.19921875 5.9921875 C-9.15667519 7.99173496 -9.15841092 9.99260386 -9.19921875 11.9921875 C-10.19921875 12.9921875 -10.19921875 12.9921875 -12.76171875 13.0546875 C-13.56609375 13.0340625 -14.37046875 13.0134375 -15.19921875 12.9921875 C-15.85921875 11.6721875 -16.51921875 10.3521875 -17.19921875 8.9921875 C-24.16275583 19.47089099 -24.16275583 19.47089099 -25.95703125 31.609375 C-25.10759736 34.28027538 -24.35381186 35.15366072 -22.13671875 36.8046875 C-21.16734375 37.5265625 -20.19796875 38.2484375 -19.19921875 38.9921875 C-17.87921875 38.3321875 -16.55921875 37.6721875 -15.19921875 36.9921875 C-15.19921875 36.6621875 -15.19921875 36.3321875 -15.19921875 35.9921875 C-17.50921875 35.3321875 -19.81921875 34.6721875 -22.19921875 33.9921875 C-21.86921875 32.3421875 -21.53921875 30.6921875 -21.19921875 28.9921875 C-19.21921875 28.3321875 -17.23921875 27.6721875 -15.19921875 26.9921875 C-14.53921875 28.3121875 -13.87921875 29.6321875 -13.19921875 30.9921875 C-9.8097719 29.29746407 -8.75411256 25.52905577 -7.13671875 22.2421875 C-6.77255859 21.52546875 -6.40839844 20.80875 -6.03320312 20.0703125 C-3.33716062 14.7700997 -3.33716062 14.7700997 -2.19921875 8.9921875 C-5.08050336 5.34820991 -7.77775235 3.38179123 -12.19921875 1.9921875 Z M0.80078125 5.9921875 C2.78078125 6.9821875 2.78078125 6.9821875 4.80078125 7.9921875 C4.47078125 7.3321875 4.14078125 6.6721875 3.80078125 5.9921875 C2.81078125 5.9921875 1.82078125 5.9921875 0.80078125 5.9921875 Z " fill="#9B9B9B" transform="translate(87.19921875,19.0078125)"/>
<path d="M0 0 C4.08474632 0.34039553 6.33953005 1.06469026 9.75 3.3125 C12.74777994 7.00976192 13.12712112 9.63276976 12.75 14.3125 C11.4375 17.3046875 11.4375 17.3046875 9.75 20.1875 C9.193125 21.15429688 8.63625 22.12109375 8.0625 23.1171875 C7.4128125 24.20386719 7.4128125 24.20386719 6.75 25.3125 C7.41 25.3125 8.07 25.3125 8.75 25.3125 C8.42 26.9625 8.09 28.6125 7.75 30.3125 C4.9375 30.5625 4.9375 30.5625 1.75 30.3125 C1.29625 29.69375 0.8425 29.075 0.375 28.4375 C-1.54905868 25.92142327 -2.18764374 25.94403351 -5.1875 25.375 C-8.40138882 24.70026091 -9.21212978 24.34752995 -11.75 22 C-13.4321125 18.9862151 -13.92538974 17.68944872 -13.25 14.3125 C-11.4177632 11.43327075 -10.24971192 9.67350708 -7 8.5 C-6.4225 8.438125 -5.845 8.37625 -5.25 8.3125 C-5.29125 7.36375 -5.3325 6.415 -5.375 5.4375 C-5.19891441 1.03536037 -4.347837 0.41806125 0 0 Z M2.75 8.3125 C2.42 9.3025 2.09 10.2925 1.75 11.3125 C2.74 11.3125 3.73 11.3125 4.75 11.3125 C4.75 10.3225 4.75 9.3325 4.75 8.3125 C4.09 8.3125 3.43 8.3125 2.75 8.3125 Z M-3.25 16.3125 C-2.92 17.3025 -2.59 18.2925 -2.25 19.3125 C-1.26 18.9825 -0.27 18.6525 0.75 18.3125 C-0.57 17.6525 -1.89 16.9925 -3.25 16.3125 Z " fill="#181818" transform="translate(193.25,45.6875)"/>
<path d="M0 0 C1.31554985 0.4495045 2.62738358 0.90989716 3.9375 1.375 C5.03384766 1.75785156 5.03384766 1.75785156 6.15234375 2.1484375 C8 3 8 3 9 5 C10.3303125 4.6596875 10.3303125 4.6596875 11.6875 4.3125 C15.60651734 3.94278138 16.93306176 4.63407622 20 7 C21.21977329 9.43954658 21.20153813 11.15305849 21.25 13.875 C21.27578125 14.73867187 21.3015625 15.60234375 21.328125 16.4921875 C20.93607199 19.48859264 19.90163832 20.70278278 18 23 C17.27648573 24.98014432 16.59734611 26.97821315 16 29 C12.87709365 28.51421457 10.00419641 28.0013988 7 27 C6.3125 24.9375 6.3125 24.9375 6 23 C4.6696875 23.12375 4.6696875 23.12375 3.3125 23.25 C-0 23 -0 23 -2.875 21.5625 C-5.5246323 18.36735517 -5.71052775 16.58840601 -5.5078125 12.52734375 C-4.58566116 7.93786746 -2.34470805 4.01112555 0 0 Z M3 11 C2.01 11.495 2.01 11.495 1 12 C1 12.66 1 13.32 1 14 C1.99 13.67 2.98 13.34 4 13 C3.67 12.34 3.34 11.68 3 11 Z M12 15 C11.01 15.99 10.02 16.98 9 18 C9.33 18.66 9.66 19.32 10 20 C11.32 18.68 12.64 17.36 14 16 C13.34 15.67 12.68 15.34 12 15 Z " fill="#3D3D3D" transform="translate(15,107)"/>
<path d="M0 0 C3.125 0.625 3.125 0.625 6 2 C6.875 4.125 6.875 4.125 7 6 C7.54785156 5.7628125 8.09570312 5.525625 8.66015625 5.28125 C12.92643749 4.76844157 15.92374614 8.12843949 19.24609375 10.53125 C22.4976888 12.26543403 23.55485433 11.96625121 27 11 C27.99 11.33 28.98 11.66 30 12 C30.125 17.75 30.125 17.75 29 20 C28.34 20 27.68 20 27 20 C26.71125 20.94875 26.4225 21.8975 26.125 22.875 C25 26 25 26 23 28 C20.375 27.625 20.375 27.625 18 27 C17.814375 25.9275 17.62875 24.855 17.4375 23.75 C16.76923865 21.30960856 16.3033734 20.2431191 14.30859375 18.64453125 C12.58340249 17.67912119 10.79400985 16.83056012 9 16 C9 16.66 9 17.32 9 18 C8.01 18.33 7.02 18.66 6 19 C3.9375 17.25 3.9375 17.25 2 15 C2.25 12.75 2.25 12.75 3 11 C2.195625 10.855625 1.39125 10.71125 0.5625 10.5625 C-2 10 -2 10 -3 9 C-3.25 5.5625 -3.25 5.5625 -3 2 C-2.01 1.34 -1.02 0.68 0 0 Z " fill="#353535" transform="translate(17,86)"/>
<path d="M0 0 C1.62818946 0.22830701 3.2526349 0.48343576 4.875 0.75 C6.23238281 0.95882813 6.23238281 0.95882813 7.6171875 1.171875 C10 2 10 2 11.23242188 3.7265625 C12.24999356 6.74043893 11.67377048 8.20881858 10.6640625 11.203125 C10.34179688 12.1828125 10.01953125 13.1625 9.6875 14.171875 C9.1615625 15.69554687 9.1615625 15.69554687 8.625 17.25 C8.28210938 18.28125 7.93921875 19.3125 7.5859375 20.375 C6.73712993 22.9214227 5.8747907 25.46241018 5 28 C5.99 28.33 6.98 28.66 8 29 C7.67 30.98 7.34 32.96 7 35 C1.97690048 36.72669046 -1.37854404 34.95300022 -6 33 C-6.99 32.67 -7.98 32.34 -9 32 C-9 29.69 -9 27.38 -9 25 C-8.23300781 24.82726562 -7.46601563 24.65453125 -6.67578125 24.4765625 C-3.41704286 22.67830978 -2.86974694 20.96912769 -1.78320312 17.4921875 C-1.58662109 16.79351562 -1.39003906 16.09484375 -1.1875 15.375 C-0.97158203 14.66859375 -0.75566406 13.9621875 -0.53320312 13.234375 C-0.00430985 11.4949038 0.50024861 9.74806656 1 8 C0.34 8 -0.32 8 -1 8 C-1.92091738 5.42143135 -2.18506902 4.4056713 -1.0234375 1.859375 C-0.68570313 1.24578125 -0.34796875 0.6321875 0 0 Z " fill="#4F4F4F" transform="translate(171,29)"/>
<path d="M0 0 C0.5775 0.165 1.155 0.33 1.75 0.5 C4.45033485 1.10007441 6.34161797 0.66459551 9 0 C8.49396008 2.16874252 8.00016187 3.99967627 7 6 C7.804375 6.433125 8.60875 6.86625 9.4375 7.3125 C12 9 12 9 13 12 C12.67 12.66 12.34 13.32 12 14 C12.99 13.67 13.98 13.34 15 13 C17.6875 14.3125 17.6875 14.3125 20 16 C20 16.66 20 17.32 20 18 C20.763125 18.144375 21.52625 18.28875 22.3125 18.4375 C25 19 25 19 28 20 C28 20.66 28 21.32 28 22 C28.66 22 29.32 22 30 22 C30 22.66 30 23.32 30 24 C30.94875 23.79375 31.8975 23.5875 32.875 23.375 C34.421875 23.189375 34.421875 23.189375 36 23 C36.66 23.66 37.32 24.32 38 25 C37.43181818 30.56818182 37.43181818 30.56818182 36 32 C34.33382885 32.04063832 32.66611905 32.042721 31 32 C30.34 30.02 29.68 28.04 29 26 C28.34 26.99 27.68 27.98 27 29 C23.65626525 28.44271087 20.96687001 27.64826111 18 26 C18 24.35 18 22.7 18 21 C16.02 21.99 16.02 21.99 14 23 C12 21.1875 12 21.1875 10 19 C10 18.01 10 17.02 10 16 C9.34 16 8.68 16 8 16 C8 16.66 8 17.32 8 18 C6.33388095 18.042721 4.66617115 18.04063832 3 18 C2.67 17.67 2.34 17.34 2 17 C2.1546875 15.63875 2.1546875 15.63875 2.3125 14.25 C2.3281816 11.07403967 2.3281816 11.07403967 0.66796875 9.4921875 C-0.83491044 8.26031931 -2.41427627 7.12322097 -4 6 C-1.125 1.125 -1.125 1.125 0 0 Z " fill="#A0A0A0" transform="translate(148,139)"/>
<path d="M0 0 C0 1.32 0 2.64 0 4 C-1.29292969 3.90460938 -2.58585937 3.80921875 -3.91796875 3.7109375 C-13.90463845 3.04496704 -23.16091721 2.78654379 -33 5 C-33.84691406 5.14953125 -34.69382813 5.2990625 -35.56640625 5.453125 C-49.38461272 8.40663478 -62.39153824 17.10867401 -73.62890625 25.3828125 C-76 27 -76 27 -78 27 C-78 27.66 -78 28.32 -78 29 C-79.32 28.67 -80.64 28.34 -82 28 C-82 27.01 -82 26.02 -82 25 C-81.34 25 -80.68 25 -80 25 C-80 24.34 -80 23.68 -80 23 C-77.76953125 21.37890625 -77.76953125 21.37890625 -74.8125 19.5625 C-73.84957031 18.96566406 -72.88664062 18.36882812 -71.89453125 17.75390625 C-69.26726001 16.16194297 -66.6373781 14.57515691 -64 13 C-62.43378906 12.05833984 -62.43378906 12.05833984 -60.8359375 11.09765625 C-53.76270726 6.91056475 -46.89246871 3.44136921 -39 1 C-37.80375 0.608125 -36.6075 0.21625 -35.375 -0.1875 C-23.76125161 -2.98340239 -11.56750424 -2.92451574 0 0 Z " fill="#9C9C9C" transform="translate(114,124)"/>
<path d="M0 0 C3.39687676 1.46561874 5.60722686 3.36647544 8.1875 6 C8.88230469 6.70125 9.57710937 7.4025 10.29296875 8.125 C12.12650428 10.13895207 12.97698492 11.18954044 13.0546875 13.92578125 C12.28975729 24.08604997 8.38694311 33.42079431 3 42 C2.34 42 1.68 42 1 42 C0.67 42.99 0.34 43.98 0 45 C-4.5748993 47.32758035 -7.46403696 48.46220009 -12.5 47.1875 C-13.655 46.795625 -14.81 46.40375 -16 46 C-15.34 45.34 -14.68 44.68 -14 44 C-15.02480469 43.61328125 -16.04960938 43.2265625 -17.10546875 42.828125 C-18.46632699 42.30255216 -19.82699407 41.77648416 -21.1875 41.25 C-22.19780273 40.87101562 -22.19780273 40.87101562 -23.22851562 40.484375 C-27.36651064 38.86954768 -30.8186958 37.21225074 -34 34 C-33.9375 30.3125 -33.9375 30.3125 -33 27 C-32.34 26.67 -31.68 26.34 -31 26 C-31.33 28.31 -31.66 30.62 -32 33 C-27.03290894 37.13522387 -21.02130983 38.8752555 -15 41 C-13.78570312 41.43119141 -13.78570312 41.43119141 -12.546875 41.87109375 C-9.37708464 42.84501789 -7.41699956 43.14215894 -4.25 42.0625 C-1.27817472 39.33832682 0.17162093 36.58904039 2 33 C-1.3 33 -4.6 33 -8 33 C-8 32.34 -8 31.68 -8 31 C-4.7 30.67 -1.4 30.34 2 30 C2.33 28.68 2.66 27.36 3 26 C1.700625 26.020625 0.40125 26.04125 -0.9375 26.0625 C-2.29165633 26.08399454 -3.64756083 26.07148199 -5 26 C-6 25 -6 25 -6.125 22.0625 C-6 19 -6 19 -5 17 C-4.34 17 -3.68 17 -3 17 C-3.875 21.75 -3.875 21.75 -5 24 C-3.741875 24 -2.48375 24 -1.1875 24 C1.20833333 24 3.60416667 24 6 24 C8.06622354 18.02357368 8.06622354 18.02357368 7 12 C5.0431712 10.17662247 5.0431712 10.17662247 3 9 C4.32 9 5.64 9 7 9 C6.4946875 8.43410156 5.989375 7.86820313 5.46875 7.28515625 C4.49421875 6.18494141 4.49421875 6.18494141 3.5 5.0625 C2.8503125 4.33160156 2.200625 3.60070313 1.53125 2.84765625 C0 1 0 1 0 0 Z " fill="#C3C3C3" transform="translate(107,29)"/>
<path d="M0 0 C0.33 0 0.66 0 1 0 C1.29703285 10.34114369 1.22844337 20.43793614 -0.3125 30.6875 C-0.43020752 31.48704102 -0.54791504 32.28658203 -0.66918945 33.11035156 C-2.9751398 47.24407151 -8.96806006 60.24142511 -17 72 C-18.65 71.67 -20.3 71.34 -22 71 C-22.53805491 65.34601315 -20.79251795 61.88474865 -18.1875 57.0625 C-14.04703344 49.19336735 -10.73588747 42.04572933 -9.4375 33.1875 C-8.265625 25.265625 -8.265625 25.265625 -6 23 C-6.45759953 29.5508985 -7.2100144 35.6753842 -9 42 C-7.68 42 -6.36 42 -5 42 C-4.51707679 39.66738977 -4.03860141 37.33400412 -3.5625 35 C-3.42779297 34.35160156 -3.29308594 33.70320313 -3.15429688 33.03515625 C-1.53234702 25.04408625 -0.8185284 17.13277012 -0.4375 9 C-0.39431641 8.12988281 -0.35113281 7.25976562 -0.30664062 6.36328125 C-0.20175782 4.24231781 -0.10049925 2.12117567 0 0 Z " fill="#737373" transform="translate(248,142)"/>
<path d="M0 0 C0.99 0.33 1.98 0.66 3 1 C3.36548445 2.32488113 3.6937566 3.66018514 4 5 C5.48800372 7.2072358 5.48800372 7.2072358 7 9 C7.33 8.67 7.66 8.34 8 8 C9.66617115 7.95936168 11.33388095 7.957279 13 8 C13.66 9.65 14.32 11.3 15 13 C15.33 12.67 15.66 12.34 16 12 C19.72224599 11.70613847 20.77786243 11.85190829 24 14 C24 14.66 24 15.32 24 16 C24.61875 16.103125 25.2375 16.20625 25.875 16.3125 C28 17 28 17 30 20 C27.3125 22.125 27.3125 22.125 24 24 C21.4375 23.4375 21.4375 23.4375 19 22 C18.0925 21.525625 17.185 21.05125 16.25 20.5625 C14 19 14 19 13 16 C11.865625 15.87625 10.73125 15.7525 9.5625 15.625 C7.7990625 15.315625 7.7990625 15.315625 6 15 C5.67 14.34 5.34 13.68 5 13 C4.236875 13.20625 3.47375 13.4125 2.6875 13.625 C0 14 0 14 -3 12 C-2.14285714 3.42857143 -2.14285714 3.42857143 0 0 Z " fill="#B3B3B2" transform="translate(118,119)"/>
<path d="M0 0 C1.670625 0.061875 1.670625 0.061875 3.375 0.125 C3.375 0.455 3.375 0.785 3.375 1.125 C1.065 1.785 -1.245 2.445 -3.625 3.125 C-3.625 4.445 -3.625 5.765 -3.625 7.125 C-0.655 7.62 -0.655 7.62 2.375 8.125 C2.375 7.465 2.375 6.805 2.375 6.125 C3.695 6.785 5.015 7.445 6.375 8.125 C6.045 9.445 5.715 10.765 5.375 12.125 C4.055 12.125 2.735 12.125 1.375 12.125 C1.58125 13.07375 1.7875 14.0225 2 15 C2.12375 16.03125 2.2475 17.0625 2.375 18.125 C0.375 20.125 0.375 20.125 -2.25 20.25 C-3.03375 20.20875 -3.8175 20.1675 -4.625 20.125 C-3.305 20.455 -1.985 20.785 -0.625 21.125 C-0.295 23.105 0.035 25.085 0.375 27.125 C-8.65090533 25.00632375 -8.65090533 25.00632375 -12.25 21.75 C-13.80824774 18.77516341 -14.28367257 17.41836287 -13.625 14.125 C-11.7927632 11.24577075 -10.62471192 9.48600708 -7.375 8.3125 C-6.7975 8.250625 -6.22 8.18875 -5.625 8.125 C-5.66625 7.17625 -5.7075 6.2275 -5.75 5.25 C-5.56379584 0.59489612 -4.59761607 0.15853849 0 0 Z M2.375 8.125 C2.045 9.115 1.715 10.105 1.375 11.125 C2.365 11.125 3.355 11.125 4.375 11.125 C4.375 10.135 4.375 9.145 4.375 8.125 C3.715 8.125 3.055 8.125 2.375 8.125 Z M-3.625 16.125 C-3.295 17.115 -2.965 18.105 -2.625 19.125 C-1.635 18.795 -0.645 18.465 0.375 18.125 C-0.945 17.465 -2.265 16.805 -3.625 16.125 Z " fill="#353535" transform="translate(193.625,45.875)"/>
<path d="M0 0 C1.2065625 0.0309375 1.2065625 0.0309375 2.4375 0.0625 C3.10891148 4.478459 3.77381007 8.89537445 4.4375 13.3125 C4.62828125 14.56675781 4.8190625 15.82101563 5.015625 17.11328125 C5.19609375 18.31855469 5.3765625 19.52382812 5.5625 20.765625 C5.73007812 21.87583008 5.89765625 22.98603516 6.0703125 24.12988281 C6.4375 27.0625 6.4375 27.0625 6.4375 31.0625 C5.7775 31.0625 5.1175 31.0625 4.4375 31.0625 C4.1075 28.4225 3.7775 25.7825 3.4375 23.0625 C2.4475 23.3925 1.4575 23.7225 0.4375 24.0625 C1.93238582 34.78443971 5.86052197 45.36281722 10.875 54.9375 C11.390625 55.96875 11.90625 57 12.4375 58.0625 C12.1075 58.7225 11.7775 59.3825 11.4375 60.0625 C6.92700313 52.32800537 3.42647984 44.4987873 0.4375 36.0625 C0.08429687 35.07765625 -0.26890625 34.0928125 -0.6328125 33.078125 C-3.78677512 22.84762441 -4.18151274 11.70088167 -3.5625 1.0625 C-2.5625 0.0625 -2.5625 0.0625 0 0 Z " fill="#797979" transform="translate(25.5625,148.9375)"/>
<path d="M0 0 C4.33747848 0.14195384 7.55513902 1.02861391 11.3125 3.3125 C13.69096262 7.17750175 14.33867933 9.52712024 14.1875 14.0625 C12.984375 18.53125 12.984375 18.53125 10.3125 20.3125 C8.125 21 8.125 21 6.3125 21.3125 C5.3125 18.3125 5.3125 18.3125 6.0625 14.875 C6.73752916 11.25437954 6.73752916 11.25437954 4.3125 9 C0.94282047 7.10455526 -1.93635677 6.19512194 -5.6875 5.3125 C-5.6875 0.68736945 -4.48821838 0.38035749 0 0 Z " fill="#111111" transform="translate(47.6875,68.6875)"/>
<path d="M0 0 C6.89890651 -0.13685112 13.21876681 0.42936549 19.91015625 2.12109375 C19.91015625 3.44109375 19.91015625 4.76109375 19.91015625 6.12109375 C17.97076172 5.97800781 17.97076172 5.97800781 15.9921875 5.83203125 C5.98653512 5.16582333 -3.21883042 5.00105395 -13.08984375 7.12109375 C-14.08371094 7.31316406 -15.07757813 7.50523437 -16.1015625 7.703125 C-18.43585588 8.15565886 -20.76394662 8.62756253 -23.08984375 9.12109375 C-22.42984375 8.46109375 -21.76984375 7.80109375 -21.08984375 7.12109375 C-22.73984375 7.12109375 -24.38984375 7.12109375 -26.08984375 7.12109375 C-25.08984375 5.12109375 -25.08984375 5.12109375 -22.46484375 4.0859375 C-14.81336068 1.75684022 -7.95766674 0.3118681 0 0 Z " fill="#D6D6D6" transform="translate(94.08984375,121.87890625)"/>
<path d="M0 0 C1.32 0 2.64 0 4 0 C4.12375 0.515625 4.2475 1.03125 4.375 1.5625 C5.18641628 4.72702351 6.0945913 7.86124985 7 11 C2.25 14 2.25 14 0 14 C0 14.66 0 15.32 0 16 C-1.65 16 -3.3 16 -5 16 C-5 15.34 -5 14.68 -5 14 C-5.66 14 -6.32 14 -7 14 C-7.33 15.65 -7.66 17.3 -8 19 C-10.375 18.75 -10.375 18.75 -13 18 C-14.3125 15.9375 -14.3125 15.9375 -15 14 C-13.8125 12.0625 -13.8125 12.0625 -12 10 C-10.34608154 9.60828247 -8.67654729 9.27942455 -7 9 C-5.31970006 8.02308143 -3.65071396 7.02611949 -2 6 C-1.34 6 -0.68 6 0 6 C-0.2784375 4.7934375 -0.2784375 4.7934375 -0.5625 3.5625 C-0.706875 2.716875 -0.85125 1.87125 -1 1 C-0.67 0.67 -0.34 0.34 0 0 Z " fill="#DDDDDC" transform="translate(207,153)"/>
<path d="M0 0 C0.66 0.33 1.32 0.66 2 1 C1.54055375 7.10176859 -0.46561439 11.3901953 -3.4375 16.6875 C-4.24885036 18.17048952 -5.0600532 19.65355977 -5.87109375 21.13671875 C-6.23130615 21.78342529 -6.59151855 22.43013184 -6.96264648 23.09643555 C-7.68097388 24.4145807 -8.36059205 25.75428277 -9.00805664 27.10864258 C-10.28562085 29.54459875 -12.00242555 31.12727395 -14 33 C-14.66 33.66 -15.32 34.32 -16 35 C-15.67 35.66 -15.34 36.32 -15 37 C-18.65316671 35.75023244 -19.78065836 35.32901247 -22 32 C-21.34 31.67 -20.68 31.34 -20 31 C-20.680625 30.54625 -21.36125 30.0925 -22.0625 29.625 C-24.73929827 25.99837008 -24.08184233 23.57514303 -23.5546875 19.2421875 C-23 17 -23 17 -21 15 C-21.13019531 15.65226562 -21.26039062 16.30453125 -21.39453125 16.9765625 C-22.33393076 22.12625053 -22.33393076 22.12625053 -20.953125 27 C-19.44533192 28.825109 -19.44533192 28.825109 -17 31 C-15.68 30.67 -14.36 30.34 -13 30 C-14.98 29.34 -16.96 28.68 -19 28 C-19.6875 25.6875 -19.6875 25.6875 -20 23 C-18.875 21.1875 -18.875 21.1875 -17 20 C-14.5 19.625 -14.5 19.625 -12 20 C-10.34375 21.5234375 -10.34375 21.5234375 -9 23 C-7.67467939 20.48521169 -6.36479769 17.96418013 -5.0625 15.4375 C-4.50272461 14.38079102 -4.50272461 14.38079102 -3.93164062 13.30273438 C-1.62498138 8.79331946 -0.41848939 5.05508611 0 0 Z " fill="#C5C5C5" transform="translate(84,26)"/>
<path d="M0 0 C2.70788904 2.39544031 4.60944012 4.8947054 6.5 7.9375 C9.78113241 13.02452699 13.79189274 17.28792969 17.94921875 21.65795898 C21.91574987 25.83149974 21.91574987 25.83149974 23 28 C20.00779732 26.63629701 17.70973471 25.05091917 15.25 22.875 C14.63640625 22.33617187 14.0228125 21.79734375 13.390625 21.2421875 C12.93171875 20.83226562 12.4728125 20.42234375 12 20 C12 21.65 12 23.3 12 25 C7.08146414 21.13037381 3.36245733 17.29841762 0 12 C0 11.34 0 10.68 0 10 C-0.66 10 -1.32 10 -2 10 C-2.33 8.68 -2.66 7.36 -3 6 C-1.68 6 -0.36 6 1 6 C0.67 4.02 0.34 2.04 0 0 Z " fill="#595959" transform="translate(42,205)"/>
<path d="M0 0 C0.99 0.33 1.98 0.66 3 1 C3.05898369 4.45825936 3.09392131 7.9163862 3.125 11.375 C3.14175781 12.34050781 3.15851563 13.30601562 3.17578125 14.30078125 C3.23076211 22.49292891 2.5073355 30.48428108 -1 38 C-2.32 38 -3.64 38 -5 38 C-4.47814207 32.88579233 -3.58256254 27.96481481 -2.5 22.9375 C-0.92198145 15.28603445 -0.32097315 7.802968 0 0 Z " fill="#090909" transform="translate(244,146)"/>
<path d="M0 0 C3.125 0.625 3.125 0.625 6 2 C6.875 4.125 6.875 4.125 7 6 C7.54785156 5.7628125 8.09570312 5.525625 8.66015625 5.28125 C12.92643749 4.76844157 15.92374614 8.12843949 19.24609375 10.53125 C22.4976888 12.26543403 23.55485433 11.96625121 27 11 C27.99 11.33 28.98 11.66 30 12 C30.125 17.75 30.125 17.75 29 20 C28.34 19.67 27.68 19.34 27 19 C27.66 17.02 28.32 15.04 29 13 C27.68 13 26.36 13 25 13 C25 13.66 25 14.32 25 15 C20.48588166 14.1725862 17.15225666 11.71384824 13.33984375 9.27734375 C11.00543581 7.76041995 11.00543581 7.76041995 8 8 C7.566875 8.495 7.13375 8.99 6.6875 9.5 C5 11 5 11 1.9375 11.3125 C-1 11 -1 11 -3 9 C-3.3125 5.5 -3.3125 5.5 -3 2 C-2.01 1.34 -1.02 0.68 0 0 Z " fill="#CACACA" transform="translate(17,86)"/>
<path d="M0 0 C0.86625 0.020625 1.7325 0.04125 2.625 0.0625 C4.29724459 0.0625 5.97066499 0.04441288 7.640625 -0.04296875 C13.14160793 -0.24492791 16.72170995 0.55869231 21.625 3.0625 C21.625 4.3825 21.625 5.7025 21.625 7.0625 C20.965 6.918125 20.305 6.77375 19.625 6.625 C14.9866981 5.75531839 10.35298761 5.0625 5.625 5.0625 C4.635 6.5475 4.635 6.5475 3.625 8.0625 C0.5625 8.3125 0.5625 8.3125 -2.375 8.0625 C-3.375 7.0625 -3.375 7.0625 -3.5 4.0625 C-3.33438529 0.08774698 -3.33438529 0.08774698 0 0 Z " fill="#C5C6C5" transform="translate(217.375,153.9375)"/>
<path d="M0 0 C1.31554985 0.4495045 2.62738358 0.90989716 3.9375 1.375 C5.03384766 1.75785156 5.03384766 1.75785156 6.15234375 2.1484375 C8 3 8 3 9 5 C10.3303125 4.6596875 10.3303125 4.6596875 11.6875 4.3125 C15.57790624 3.94548054 16.91440696 4.73118159 20 7 C19.67 7.66 19.34 8.32 19 9 C18.01 8.34 17.02 7.68 16 7 C13.04253508 6.41654524 13.04253508 6.41654524 10 7 C7.6706919 9.24496542 7.6706919 9.24496542 6 12 C5.01 13.485 5.01 13.485 4 15 C2.68 15 1.36 15 0 15 C0 12.69 0 10.38 0 8 C-1.98 8.99 -1.98 8.99 -4 10 C-3.52449439 8.51965236 -3.04448784 7.04074979 -2.5625 5.5625 C-2.29566406 4.73878906 -2.02882813 3.91507812 -1.75390625 3.06640625 C-1 1 -1 1 0 0 Z M3 11 C2.01 11.495 2.01 11.495 1 12 C1 12.66 1 13.32 1 14 C1.99 13.67 2.98 13.34 4 13 C3.67 12.34 3.34 11.68 3 11 Z " fill="#343434" transform="translate(15,107)"/>
<path d="M0 0 C2.475 1.485 2.475 1.485 5 3 C4.72865809 13.92767878 0.77086106 23.80936942 -5 33 C-5.66 33 -6.32 33 -7 33 C-7.33 33.99 -7.66 34.98 -8 36 C-10.95664519 37.4783226 -13.74229737 37.06032783 -17 37 C-16.1646875 36.6596875 -16.1646875 36.6596875 -15.3125 36.3125 C-9.79940091 33.18344376 -7.01242364 28.65043185 -4.3125 23.0625 C-3.73113281 21.87785156 -3.14976563 20.69320312 -2.55078125 19.47265625 C0.3974637 12.87066694 2.37728707 7.13186122 0 0 Z " fill="#6A6A6A" transform="translate(115,38)"/>
<path d="M0 0 C7.92 0 15.84 0 24 0 C23.01 0.495 23.01 0.495 22 1 C22 1.66 22 2.32 22 3 C19.69 3.33 17.38 3.66 15 4 C15 4.66 15 5.32 15 6 C10.66666667 6 6.33333333 6 2 6 C1.34 4.02 0.68 2.04 0 0 Z " fill="#92B774" transform="translate(117,266)"/>
<path d="M0 0 C-2.21085093 2.21085093 -7.51554509 1.83363549 -10.62890625 2.16210938 C-12.42833567 2.37533656 -14.21625028 2.68117558 -16 3 C-16.33 3.66 -16.66 4.32 -17 5 C-16.01 5 -15.02 5 -14 5 C-13.75 7.25 -13.75 7.25 -14 10 C-16 12.3125 -16 12.3125 -18 14 C-13.545 13.505 -13.545 13.505 -9 13 C-11.39763185 15.39763185 -12.33273498 15.34280586 -15.625 15.625 C-16.44226563 15.69976562 -17.25953125 15.77453125 -18.1015625 15.8515625 C-18.72804687 15.90054687 -19.35453125 15.94953125 -20 16 C-19.45276317 12.62537285 -18.9451 10.91765 -17 8 C-22.23272633 9.63958758 -27.15196636 11.38952035 -32 14 C-31.67 12.68 -31.34 11.36 -31 10 C-29.68 10 -28.36 10 -27 10 C-27 9.34 -27 8.68 -27 8 C-23.535 7.505 -23.535 7.505 -20 7 C-20 6.34 -20 5.68 -20 5 C-21.32 4.34 -22.64 3.68 -24 3 C-19.6406141 1.42022254 -15.46259885 0.47140999 -10.875 -0.1875 C-9.67617187 -0.36667969 -8.47734375 -0.54585938 -7.2421875 -0.73046875 C-4.41530046 -0.96547502 -2.63772077 -0.92517072 0 0 Z " fill="#BDD1AC" transform="translate(159,262)"/>
<path d="M0 0 C3.37462715 0.54723683 5.08235 1.0549 8 3 C7.814375 3.928125 7.62875 4.85625 7.4375 5.8125 C6.75876119 9.01343771 6.75876119 9.01343771 8 12 C3.25 10.125 3.25 10.125 1 9 C1 9.66 1 10.32 1 11 C0.01 11.33 -0.98 11.66 -2 12 C-4.0625 10.25 -4.0625 10.25 -6 8 C-5.9375 5.8125 -5.9375 5.8125 -5 4 C-4.01 3.67 -3.02 3.34 -2 3 C-1.34 2.01 -0.68 1.02 0 0 Z " fill="#414141" transform="translate(25,93)"/>
<path d="M0 0 C10.71912339 1.3187565 24.14407199 6.34439089 31 15 C31.33 15.99 31.66 16.98 32 18 C30.68 18 29.36 18 28 18 C27.92910156 17.40703125 27.85820313 16.8140625 27.78515625 16.203125 C26.709713 13.18546335 25.12842208 12.41761368 22.4375 10.75 C21.61121094 10.22921875 20.78492187 9.7084375 19.93359375 9.171875 C19.29550781 8.78515625 18.65742187 8.3984375 18 8 C18 8.66 18 9.32 18 10 C13.06362376 10.90668135 8.88564923 11.3153671 4 10 C2 7.5625 2 7.5625 1 5 C1.33 4.34 1.66 3.68 2 3 C2.7425 3.61875 3.485 4.2375 4.25 4.875 C6.48801188 6.60437281 8.43739987 7.86106661 11 9 C11.33 7.68 11.66 6.36 12 5 C11.38511719 4.80664062 10.77023438 4.61328125 10.13671875 4.4140625 C8.92435547 4.02347656 8.92435547 4.02347656 7.6875 3.625 C6.88699219 3.36976562 6.08648437 3.11453125 5.26171875 2.8515625 C3 2 3 2 0 0 Z " fill="#1D1D1D" transform="translate(82,20)"/>
<path d="M0 0 C4.34871974 0.50177535 6.95603922 3.02522015 10 6 C10 7.32 10 8.64 10 10 C9.24074219 10.13277344 8.48148438 10.26554687 7.69921875 10.40234375 C6.70535156 10.57894531 5.71148437 10.75554687 4.6875 10.9375 C3.70136719 11.11152344 2.71523437 11.28554687 1.69921875 11.46484375 C-1.08189213 11.95746847 -1.08189213 11.95746847 -4 13 C-4.33 11.02 -4.66 9.04 -5 7 C-4.0409375 6.6596875 -4.0409375 6.6596875 -3.0625 6.3125 C-0.72806339 5.14749104 -0.72806339 5.14749104 -0.25 2.375 C-0.1675 1.59125 -0.085 0.8075 0 0 Z " fill="#0E0E0E" transform="translate(227,72)"/>
<path d="M0 0 C0.33 0 0.66 0 1 0 C1.84681133 5.08086796 2.09038099 9.84828377 2 15 C2.66 15 3.32 15 4 15 C4.66 18.3 5.32 21.6 6 25 C4.02 25.99 4.02 25.99 2 27 C1.15774 24.44013121 0.32601449 21.87760985 -0.5 19.3125 C-0.73847656 18.59126953 -0.97695313 17.87003906 -1.22265625 17.12695312 C-2.44398994 13.30592343 -3.32075577 10.06557944 -3 6 C-2.01 6.495 -2.01 6.495 -1 7 C-0.67 4.69 -0.34 2.38 0 0 Z " fill="#131313" transform="translate(28,165)"/>
<path d="M0 0 C0.99 0.33 1.98 0.66 3 1 C2.01 1.495 2.01 1.495 1 2 C1.66 2.37125 2.32 2.7425 3 3.125 C5 5 5 5 5.375 8.0625 C5 11 5 11 3 13 C0.5 13.3125 0.5 13.3125 -2 13 C-2.66 12.01 -3.32 11.02 -4 10 C-4.99 10.495 -4.99 10.495 -6 11 C-4.74194623 6.49197399 -3.09592835 3.5087188 0 0 Z " fill="#CFCFCF" transform="translate(74,20)"/>
<path d="M0 0 C4.59306496 1.4859916 7.43569245 3.85014682 11 7 C10.67 7.99 10.34 8.98 10 10 C5.90209022 9.32595129 2.2903118 8.03576739 -1.5625 6.5 C-6.68862926 4.45448292 -6.68862926 4.45448292 -12 3 C-7.9472484 2.01751476 -4.16138263 1.91840426 0 2 C0 1.34 0 0.68 0 0 Z " fill="#999999" transform="translate(100,28)"/>
<path d="M0 0 C0.66 0.33 1.32 0.66 2 1 C-2.62 5.62 -7.24 10.24 -12 15 C-7.36444337 16.54518554 -4.32583187 17.31161121 0.375 17.625 C1.43460938 17.69976562 2.49421875 17.77453125 3.5859375 17.8515625 C4.78089844 17.92503906 4.78089844 17.92503906 6 18 C6 18.33 6 18.66 6 19 C-1.36487404 19.99862699 -8.57313685 20.10331031 -16 20 C-16 16 -16 16 -14.53125 14.07714844 C-13.8609375 13.4277832 -13.190625 12.77841797 -12.5 12.109375 C-11.778125 11.40039062 -11.05625 10.69140625 -10.3125 9.9609375 C-9.549375 9.23132813 -8.78625 8.50171875 -8 7.75 C-7.236875 7.00492188 -6.47375 6.25984375 -5.6875 5.4921875 C-3.80031094 3.65217816 -1.90443371 1.82212773 0 0 Z " fill="#CFDCC2" transform="translate(141,239)"/>
<path d="M0 0 C1.6387207 0.00773437 1.6387207 0.00773437 3.31054688 0.015625 C4.44685547 0.03625 5.58316406 0.056875 6.75390625 0.078125 C7.88634766 0.08328125 9.01878906 0.0884375 10.18554688 0.09375 C15.0400131 0.13951986 19.56798961 0.24506711 24.31640625 1.328125 C24.31640625 1.988125 24.31640625 2.648125 24.31640625 3.328125 C13.09640625 3.328125 1.87640625 3.328125 -9.68359375 3.328125 C-5.50224571 0.19211397 -4.87121215 -0.04577243 0 0 Z " fill="#626262" transform="translate(88.68359375,123.671875)"/>
<path d="M0 0 C0.99 0.33 1.98 0.66 3 1 C3.6875 3.0625 3.6875 3.0625 4 5 C4.53625 5.061875 5.0725 5.12375 5.625 5.1875 C9.71677684 6.58731839 13.11511283 9.23022566 15.0625 13.125 C15 15 15 15 14 16.8125 C10.90521904 18.6500262 8.40384837 17.7064591 5 17 C5 16.67 5 16.34 5 16 C7.64 16 10.28 16 13 16 C13 14.68 13 13.36 13 12 C12.401875 11.731875 11.80375 11.46375 11.1875 11.1875 C9.01273336 10.00691239 7.73183488 8.73183488 6 7 C5.01 6.67 4.02 6.34 3 6 C3.165 6.721875 3.33 7.44375 3.5 8.1875 C3 11 3 11 1.32421875 12.48046875 C-0.76359412 13.84308153 -2.68421054 15.0701419 -5 16 C-5.99 15.67 -6.98 15.34 -8 15 C-6.35 12.03 -4.7 9.06 -3 6 C-1.35 6 0.3 6 2 6 C1.34 4.02 0.68 2.04 0 0 Z M-2 7 C-2.99 8.98 -3.98 10.96 -5 13 C-1.99615946 12.3045656 -1.99615946 12.3045656 1 11 C1.96877057 8.96756452 1.96877057 8.96756452 2 7 C0.68 7 -0.64 7 -2 7 Z " fill="#D1D1D1" transform="translate(224,66)"/>
<path d="M0 0 C-3.48203649 2.94436909 -6.93125717 5.1948697 -11 7.25 C-12.5159375 8.03117188 -12.5159375 8.03117188 -14.0625 8.828125 C-16.98492845 9.99398741 -18.89483158 10.25115333 -22 10 C-20.71034824 8.62437146 -19.37310707 7.29233607 -18 6 C-17.34 6 -16.68 6 -16 6 C-15.67 5.01 -15.34 4.02 -15 3 C-10.54159234 0.02772822 -5.21470208 -0.15337359 0 0 Z " fill="#959595" transform="translate(75,128)"/>
<path d="M0 0 C1.8125 0.0625 1.8125 0.0625 4 1 C7.16605547 4.8897253 8.52548215 8.01756253 9 13 C6.64046906 10.64046906 6.50858587 9.22104383 6 6 C4.68 6.33 3.36 6.66 2 7 C2.19335938 7.54527344 2.38671875 8.09054688 2.5859375 8.65234375 C4.44760453 14.0438052 5.87655666 19.40921726 7 25 C5 24 5 24 4.25390625 21.92578125 C3.91166016 20.63220703 3.91166016 20.63220703 3.5625 19.3125 C2.69079671 16.1814841 1.84427847 13.70585933 0.3125 10.8125 C-1.30081668 7.35539282 -1.2957994 4.77144229 -1 1 C-0.67 0.67 -0.34 0.34 0 0 Z " fill="#989898" transform="translate(231,95)"/>
<path d="M0 0 C0.99 0.33 1.98 0.66 3 1 C3.625 2.75 3.625 2.75 4 5 C4.226875 5.825 4.45375 6.65 4.6875 7.5 C5.04888437 10.39107497 4.52775619 11.5735637 3 14 C0.83125748 13.49396008 -0.99967627 13.00016187 -3 12 C-2.14285714 3.42857143 -2.14285714 3.42857143 0 0 Z " fill="#CDCDCD" transform="translate(118,119)"/>
<path d="M0 0 C0.5775 0.165 1.155 0.33 1.75 0.5 C4.45033485 1.10007441 6.34161797 0.66459551 9 0 C8.61479436 2.53910197 8.29902057 3.72751123 6.37109375 5.484375 C5.73300781 5.90203125 5.09492188 6.3196875 4.4375 6.75 C3.79683594 7.17796875 3.15617188 7.6059375 2.49609375 8.046875 C1.75552734 8.51867187 1.75552734 8.51867187 1 9 C-0.65 8.01 -2.3 7.02 -4 6 C-1.125 1.125 -1.125 1.125 0 0 Z " fill="#CACBCA" transform="translate(148,139)"/>
<path d="M0 0 C0.66 0.33 1.32 0.66 2 1 C1.67 2.65 1.34 4.3 1 6 C0.34 6 -0.32 6 -1 6 C-1.33 7.65 -1.66 9.3 -2 11 C-4.375 10.75 -4.375 10.75 -7 10 C-8.3125 7.9375 -8.3125 7.9375 -9 6 C-7.31337036 3.24813059 -6.56478886 2.14792089 -3.375 1.3125 C-2.59125 1.209375 -1.8075 1.10625 -1 1 C-0.67 0.67 -0.34 0.34 0 0 Z " fill="#D8D9D8" transform="translate(201,161)"/>
<path d="M0 0 C1.670625 0.061875 1.670625 0.061875 3.375 0.125 C3.375 0.455 3.375 0.785 3.375 1.125 C1.065 1.785 -1.245 2.445 -3.625 3.125 C-3.625 4.445 -3.625 5.765 -3.625 7.125 C-0.655 7.62 -0.655 7.62 2.375 8.125 C2.375 7.465 2.375 6.805 2.375 6.125 C3.695 6.785 5.015 7.445 6.375 8.125 C6.045 9.445 5.715 10.765 5.375 12.125 C4.39917969 12.02960937 3.42335937 11.93421875 2.41796875 11.8359375 C0.50951172 11.66964844 0.50951172 11.66964844 -1.4375 11.5 C-2.70207031 11.38398437 -3.96664062 11.26796875 -5.26953125 11.1484375 C-8.76057941 10.81058196 -8.76057941 10.81058196 -11.625 13.125 C-10.875 11.1875 -10.875 11.1875 -9.625 9.125 C-7.5 8.375 -7.5 8.375 -5.625 8.125 C-5.66625 7.17625 -5.7075 6.2275 -5.75 5.25 C-5.56379584 0.59489612 -4.59761607 0.15853849 0 0 Z M2.375 8.125 C2.045 9.115 1.715 10.105 1.375 11.125 C2.365 11.125 3.355 11.125 4.375 11.125 C4.375 10.135 4.375 9.145 4.375 8.125 C3.715 8.125 3.055 8.125 2.375 8.125 Z " fill="#CDCDCD" transform="translate(193.625,45.875)"/>
<path d="M0 0 C3.25524265 3.02272532 5.61820737 6.25718301 8 10 C7.67 10.66 7.34 11.32 7 12 C6.34 11.34 5.68 10.68 5 10 C4.855625 10.61875 4.71125 11.2375 4.5625 11.875 C4 14 4 14 3 16 C0 12.25 0 12.25 0 10 C-0.66 10 -1.32 10 -2 10 C-2.33 8.68 -2.66 7.36 -3 6 C-1.68 6 -0.36 6 1 6 C0.67 4.02 0.34 2.04 0 0 Z " fill="#797979" transform="translate(42,205)"/>
<path d="M0 0 C0.33 0 0.66 0 1 0 C0.91845544 3.52173396 0.80567356 7.04181983 0.6875 10.5625 C0.66494141 11.55314453 0.64238281 12.54378906 0.61914062 13.56445312 C0.40244135 19.49413325 -0.37302797 23.69132736 -3 29 C-3.4054103 31.32189536 -3.76072994 33.65515344 -4 36 C-2.02 35.505 -2.02 35.505 0 35 C-0.33 35.66 -0.66 36.32 -1 37 C-2.32 37 -3.64 37 -5 37 C-5.17560291 31.46850829 -4.79988604 26.83221841 -3.54345703 21.45922852 C-2.62803894 17.3168177 -2.01251108 13.13011114 -1.375 8.9375 C-1.2409375 8.07189453 -1.106875 7.20628906 -0.96875 6.31445312 C-0.64320547 4.21004026 -0.32122232 2.10507695 0 0 Z " fill="#D9E3CF" transform="translate(209,268)"/>
<path d="M0 0 C1.31554985 0.4495045 2.62738358 0.90989716 3.9375 1.375 C5.03384766 1.75785156 5.03384766 1.75785156 6.15234375 2.1484375 C8 3 8 3 9 5 C10.3303125 4.6596875 10.3303125 4.6596875 11.6875 4.3125 C15.57790624 3.94548054 16.91440696 4.73118159 20 7 C19.67 7.66 19.34 8.32 19 9 C18.01 8.34 17.02 7.68 16 7 C13.04253508 6.41654524 13.04253508 6.41654524 10 7 C7.6706919 9.24496542 7.6706919 9.24496542 6 12 C5.01 13.485 5.01 13.485 4 15 C3.01 14.67 2.02 14.34 1 14 C1.66 13.34 2.32 12.68 3 12 C2.34 11.67 1.68 11.34 1 11 C4.75 8 4.75 8 7 8 C7 6.68 7 5.36 7 4 C4.36 3.67 1.72 3.34 -1 3 C-0.67 2.01 -0.34 1.02 0 0 Z " fill="#D1D1D1" transform="translate(15,107)"/>
<path d="M0 0 C0 5.61846715 -3.36752492 9.00427741 -7 13 C-7.66 13 -8.32 13 -9 13 C-9.185625 13.5775 -9.37125 14.155 -9.5625 14.75 C-12.01295073 18.58548809 -15.9895652 19.9947826 -20 22 C-18.7805468 18.3416404 -17.0532772 17.61411482 -13.96875 15.515625 C-10.46580117 12.81891042 -7.79239297 9.40260711 -5 6 C-4.48824219 5.39027344 -3.97648437 4.78054687 -3.44921875 4.15234375 C-2.29250003 2.77405637 -1.14507812 1.38797348 0 0 Z " fill="#C8D8BA" transform="translate(230,215)"/>
<path d="M0 0 C0.33 0.66 0.66 1.32 1 2 C2.64142963 3.0409066 4.30712215 4.04504326 6 5 C5.67 5.66 5.34 6.32 5 7 C4.34 6.34 3.68 5.68 3 5 C2.01 5 1.02 5 0 5 C0.33 6.98 0.66 8.96 1 11 C0.01 11.33 -0.98 11.66 -2 12 C-0.68 12 0.64 12 2 12 C2 12.66 2 13.32 2 14 C0.33388095 14.042721 -1.33382885 14.04063832 -3 14 C-3.33 13.67 -3.66 13.34 -4 13 C-3.95875 12.05125 -3.9175 11.1025 -3.875 10.125 C-3.69037283 7.00715224 -3.69037283 7.00715224 -5.5 5.125 C-5.995 4.75375 -6.49 4.3825 -7 4 C-6.401875 3.896875 -5.80375 3.79375 -5.1875 3.6875 C-2.71756736 2.91123545 -1.67748765 1.92911079 0 0 Z " fill="#D9D9D9" transform="translate(154,143)"/>
<path d="M0 0 C1.75570312 0.70962891 1.75570312 0.70962891 3.546875 1.43359375 C4.43890625 1.80613281 5.3309375 2.17867187 6.25 2.5625 C5.92 3.8825 5.59 5.2025 5.25 6.5625 C1.84687262 5.50374926 -0.76353231 4.55347846 -3.75 2.5625 C-4.74 2.5625 -5.73 2.5625 -6.75 2.5625 C-8.9375 0.5625 -8.9375 0.5625 -10.75 -1.4375 C-6.67320841 -3.1227084 -3.91924407 -1.60689007 0 0 Z M0.25 2.5625 C2.23 3.5525 2.23 3.5525 4.25 4.5625 C3.92 3.9025 3.59 3.2425 3.25 2.5625 C2.26 2.5625 1.27 2.5625 0.25 2.5625 Z " fill="#B1B1B1" transform="translate(87.75,22.4375)"/>
<path d="M0 0 C2.48587357 0.33144981 3.67459316 0.61261091 5.3125 2.5625 C6.77241005 7.73854473 5.64454729 11.83981487 3.125 16.375 C1 19 1 19 -2 21 C-2.99 20.67 -3.98 20.34 -5 20 C-3.515 19.1028125 -3.515 19.1028125 -2 18.1875 C-1.01 17.465625 -0.02 16.74375 1 16 C1 15.01 1 14.02 1 13 C1.66 13 2.32 13 3 13 C2.88610125 11.20759337 2.75852313 9.41605165 2.625 7.625 C2.55539062 6.62726563 2.48578125 5.62953125 2.4140625 4.6015625 C2.23636036 1.84491121 2.23636036 1.84491121 0 0 Z " fill="#D2DFC6" transform="translate(263,205)"/>
<path d="M0 0 C0.33 0.66 0.66 1.32 1 2 C-3.625 6.875 -3.625 6.875 -7 8 C-7 8.66 -7 9.32 -7 10 C-8.32 9.67 -9.64 9.34 -11 9 C-11 8.01 -11 7.02 -11 6 C-10.34 6 -9.68 6 -9 6 C-9 5.34 -9 4.68 -9 4 C-6.03 2.68 -3.06 1.36 0 0 Z " fill="#AFAFAE" transform="translate(43,143)"/>
<path d="M0 0 C0.66 0.33 1.32 0.66 2 1 C1.52533391 7.07411686 -0.42705741 11.48943551 -3.3125 16.8125 C-3.70373047 17.57498047 -4.09496094 18.33746094 -4.49804688 19.12304688 C-4.88669922 19.85201172 -5.27535156 20.58097656 -5.67578125 21.33203125 C-6.02552002 21.98921143 -6.37525879 22.6463916 -6.7355957 23.32348633 C-8.25063666 25.33232708 -9.70034505 26.04435821 -12 27 C-12 25.35 -12 23.7 -12 22 C-11.01 22.33 -10.02 22.66 -9 23 C-7.67467939 20.48521169 -6.36479769 17.96418013 -5.0625 15.4375 C-4.68931641 14.73302734 -4.31613281 14.02855469 -3.93164062 13.30273438 C-1.62498138 8.79331946 -0.41848939 5.05508611 0 0 Z " fill="#D0D0D0" transform="translate(84,26)"/>
<path d="M0 0 C3.3 0.33 6.6 0.66 10 1 C10 1.99 10 2.98 10 4 C9.67 3.67 9.34 3.34 9 3 C7.48071962 2.92820036 5.95832518 2.91607993 4.4375 2.9375 C3.61121094 2.94652344 2.78492187 2.95554688 1.93359375 2.96484375 C0.97646484 2.98224609 0.97646484 2.98224609 0 3 C-0.92470553 7.71599818 -1.22923777 10.67265609 1 15 C-0.32 15.99 -1.64 16.98 -3 18 C-2.79375 17.21625 -2.5875 16.4325 -2.375 15.625 C-2.25125 14.75875 -2.1275 13.8925 -2 13 C-2.66 12.34 -3.32 11.68 -4 11 C-4.33 10.34 -4.66 9.68 -5 9 C-4.00390625 6.8359375 -4.00390625 6.8359375 -2.5625 4.375 C-2.08941406 3.55773438 -1.61632812 2.74046875 -1.12890625 1.8984375 C-0.75636719 1.27195313 -0.38382812 0.64546875 0 0 Z " fill="#B7B7B7" transform="translate(85,36)"/>
<path d="M0 0 C2.5 0.125 2.5 0.125 3.5 1.125 C3.625 3.625 3.625 3.625 3.5 6.125 C2.5 7.125 2.5 7.125 0 7.25 C-2.5 7.125 -2.5 7.125 -3.5 6.125 C-3.625 3.625 -3.625 3.625 -3.5 1.125 C-2.5 0.125 -2.5 0.125 0 0 Z " fill="#0D0D0D" transform="translate(18.5,87.875)"/>
<path d="M0 0 C0.66 0.99 1.32 1.98 2 3 C0.39935157 3.53154742 -1.20568874 4.04988353 -2.8125 4.5625 C-3.70582031 4.85253906 -4.59914063 5.14257812 -5.51953125 5.44140625 C-8 6 -8 6 -11 5 C-10.34 4.67 -9.68 4.34 -9 4 C-10.65 4 -12.3 4 -14 4 C-13 2 -13 2 -10.375 0.875 C-6.71587958 -0.07366085 -3.76271496 -0.36179952 0 0 Z " fill="#A7A7A7" transform="translate(82,125)"/>
<path d="M0 0 C3.28212246 0.43761633 4.84832931 1.52557871 7 4 C3.12435233 7.61139896 3.12435233 7.61139896 1 9 C-1.375 8.8125 -1.375 8.8125 -3 8 C-2.67 7.01 -2.34 6.02 -2 5 C-2 5.66 -2 6.32 -2 7 C-1.34 6.67 -0.68 6.34 0 6 C-0.2784375 4.7934375 -0.2784375 4.7934375 -0.5625 3.5625 C-0.706875 2.716875 -0.85125 1.87125 -1 1 C-0.67 0.67 -0.34 0.34 0 0 Z " fill="#5D5D5D" transform="translate(154,147)"/>
<path d="M0 0 C0.33 0.99 0.66 1.98 1 3 C-0.43645851 4.60509934 -1.87420706 6.20904424 -3.3125 7.8125 C-4.11300781 8.70582031 -4.91351563 9.59914063 -5.73828125 10.51953125 C-7.45224581 12.39926786 -9.17877604 14.22592747 -11 16 C-11.66 15.67 -12.32 15.34 -13 15 C-12.34 14.34 -11.68 13.68 -11 13 C-10.896875 12.38125 -10.79375 11.7625 -10.6875 11.125 C-9.67146486 7.98452776 -7.66585792 6.8205859 -5 5 C-4.34 5 -3.68 5 -3 5 C-1.3553326 2.53673288 -1.3553326 2.53673288 0 0 Z " fill="#CCDBBF" transform="translate(233,279)"/>
<path d="M0 0 C2.125 0.375 2.125 0.375 4 1 C4.93423645 4.01031744 5.04449911 4.86650268 4 8 C2.35 8 0.7 8 -1 8 C-1.625 5.125 -1.625 5.125 -2 2 C-1.34 1.34 -0.68 0.68 0 0 Z " fill="#7F807F" transform="translate(203,161)"/>
<path d="M0 0 C2.97 0.495 2.97 0.495 6 1 C6.625 3.375 6.625 3.375 7 6 C6.34 6.66 5.68 7.32 5 8 C3.68 8 2.36 8 1 8 C0.375 6.1875 0.375 6.1875 0 4 C0.66 3.01 1.32 2.02 2 1 C1.34 0.67 0.68 0.34 0 0 Z " fill="#111111" transform="translate(103,41)"/>
<path d="M0 0 C-0.33 1.65 -0.66 3.3 -1 5 C-3.31 5.33 -5.62 5.66 -8 6 C-8 4.35 -8 2.7 -8 1 C-5.10765685 0.17361624 -3.11257569 0 0 0 Z " fill="#0E0E0E" transform="translate(110,55)"/>
<path d="M0 0 C2.04219706 1.69179328 2.91793306 2.63727666 3.51171875 5.26171875 C3.56972656 6.06222656 3.62773438 6.86273438 3.6875 7.6875 C3.75324219 8.49574219 3.81898437 9.30398437 3.88671875 10.13671875 C3.92410156 10.75160156 3.96148437 11.36648437 4 12 C3.01 12.33 2.02 12.66 1 13 C0.34 12.67 -0.32 12.34 -1 12 C-1.36923077 7.44615385 -1.36923077 7.44615385 0.5 5.1875 C1.2425 4.5996875 1.2425 4.5996875 2 4 C1.34 4 0.68 4 0 4 C0 2.68 0 1.36 0 0 Z " fill="#454545" transform="translate(39,199)"/>
<path d="M0 0 C2.125 0.375 2.125 0.375 4 1 C4 2.65 4 4.3 4 6 C2.35 6.33 0.7 6.66 -1 7 C-1.625 4.625 -1.625 4.625 -2 2 C-1.34 1.34 -0.68 0.68 0 0 Z " fill="#121212" transform="translate(68,47)"/>
<path d="M0 0 C1.67542976 0.28604898 3.34385343 0.61781233 5 1 C4.67 2.65 4.34 4.3 4 6 C2.0625 6.5625 2.0625 6.5625 0 7 C-1 6 -1 6 -1.125 3.5 C-1 1 -1 1 0 0 Z " fill="#0E0E0E" transform="translate(73,25)"/>
<path d="M0 0 C2.125 0.375 2.125 0.375 4 1 C4 2.98 4 4.96 4 7 C2.35 7 0.7 7 -1 7 C-1.625 4.625 -1.625 4.625 -2 2 C-1.34 1.34 -0.68 0.68 0 0 Z " fill="#7A7A79" transform="translate(127,128)"/>
<path d="M0 0 C2.5 1.3125 2.5 1.3125 5 3 C5 3.99 5 4.98 5 6 C5.99 6.33 6.98 6.66 8 7 C8 8.98 8 10.96 8 13 C5.49962266 10.82575883 4.56371414 9.26954202 4 6 C3.34 6 2.68 6 2 6 C1.34 4.02 0.68 2.04 0 0 Z " fill="#C3D4B5" transform="translate(250,261)"/>
<path d="M0 0 C0.33 0.66 0.66 1.32 1 2 C1.99 1.67 2.98 1.34 4 1 C4.33 1.66 4.66 2.32 5 3 C3.68 3 2.36 3 1 3 C2.32 3.33 3.64 3.66 5 4 C5 4.99 5 5.98 5 7 C4.01 7 3.02 7 2 7 C2 7.66 2 8.32 2 9 C1.34 9 0.68 9 0 9 C-0.12375 8.195625 -0.2475 7.39125 -0.375 6.5625 C-0.684375 5.2940625 -0.684375 5.2940625 -1 4 C-1.66 3.67 -2.32 3.34 -3 3 C-2.01 2.01 -1.02 1.02 0 0 Z " fill="#BDBEBD" transform="translate(159,151)"/>
<path d="M0 0 C2.475 0.495 2.475 0.495 5 1 C5 1.66 5 2.32 5 3 C5.99 3.33 6.98 3.66 8 4 C5.4345406 6.5654594 3.52313332 6.54046087 0 7 C0 4.69 0 2.38 0 0 Z " fill="#ACC595" transform="translate(205,297)"/>
<path d="M0 0 C1.32 0 2.64 0 4 0 C4.144375 0.61875 4.28875 1.2375 4.4375 1.875 C4.93152225 4.03258322 4.93152225 4.03258322 6 6 C5.72057545 7.67654729 5.39171753 9.34608154 5 11 C4.34 9.68 3.68 8.36 3 7 C2.34 7 1.68 7 1 7 C0.67 4.69 0.34 2.38 0 0 Z " fill="#7C7C7B" transform="translate(207,153)"/>
<path d="M0 0 C1.65 1.65 3.3 3.3 5 5 C4.67 5.66 4.34 6.32 4 7 C0.31245243 6.50168276 -1.60490662 5.89932357 -4 3 C-2.68 2.67 -1.36 2.34 0 2 C0 1.34 0 0.68 0 0 Z " fill="#8D8D8D" transform="translate(106,31)"/>
<path d="M0 0 C5.44693314 -0.09688221 10.63904667 -0.12862175 16 1 C16 2.32 16 3.64 16 5 C14.35 4.67 12.7 4.34 11 4 C11 3.34 11 2.68 11 2 C7.37 1.67 3.74 1.34 0 1 C0 0.67 0 0.34 0 0 Z " fill="#5C5C5B" transform="translate(223,156)"/>
<path d="M0 0 C0.66 0 1.32 0 2 0 C1.125 4.75 1.125 4.75 0 7 C2.64 7 5.28 7 8 7 C8.33 8.65 8.66 10.3 9 12 C8.67 11.01 8.34 10.02 8 9 C6.700625 9.020625 5.40125 9.04125 4.0625 9.0625 C2.70834367 9.08399454 1.35243917 9.07148199 0 9 C-1 8 -1 8 -1.125 5.0625 C-1 2 -1 2 0 0 Z " fill="#C1C1C1" transform="translate(102,46)"/>
<path d="M0 0 C0.66 0.66 1.32 1.32 2 2 C2.99 1.67 3.98 1.34 5 1 C5.33 1.33 5.66 1.66 6 2 C6.99 1.67 7.98 1.34 9 1 C8.814375 1.61875 8.62875 2.2375 8.4375 2.875 C7.76313824 5.04160178 7.76313824 5.04160178 9 7 C5.65626525 6.44271087 2.96687001 5.64826111 0 4 C0 2.68 0 1.36 0 0 Z " fill="#D6D6D5" transform="translate(166,161)"/>
<path d="M0 0 C0.66 0.33 1.32 0.66 2 1 C0.02 3.31 -1.96 5.62 -4 8 C-5.32 7.67 -6.64 7.34 -8 7 C-7.67 5.35 -7.34 3.7 -7 2 C-6.01 2 -5.02 2 -4 2 C-4.99 3.485 -4.99 3.485 -6 5 C-5.01 5 -4.02 5 -3 5 C-3 4.34 -3 3.68 -3 3 C-1.5 1.375 -1.5 1.375 0 0 Z " fill="#4F4F4E" transform="translate(154,140)"/>
<path d="M0 0 C-0.33 0.66 -0.66 1.32 -1 2 C-2.051875 1.855625 -3.10375 1.71125 -4.1875 1.5625 C-7.91219944 1.59271355 -7.91219944 1.59271355 -9.578125 3.55859375 C-10.81902067 5.33079245 -11.95249113 7.10772592 -13 9 C-13.33 8.34 -13.66 7.68 -14 7 C-9.77550858 0.29908258 -7.96816437 -1.50342724 0 0 Z " fill="#181818" transform="translate(82,19)"/>
<path d="M0 0 C-0.33 0.99 -0.66 1.98 -1 3 C-1 2.34 -1 1.68 -1 1 C-6.23272633 2.63958758 -11.15196636 4.38952035 -16 7 C-15.67 5.68 -15.34 4.36 -15 3 C-13.68 3 -12.36 3 -11 3 C-11 2.34 -11 1.68 -11 1 C-7.26562152 0.12132271 -3.83225427 -0.08912219 0 0 Z " fill="#D1DDC4" transform="translate(143,269)"/>
<path d="M0 0 C-0.66 0 -1.32 0 -2 0 C-2 0.66 -2 1.32 -2 2 C-2.99 2 -3.98 2 -5 2 C-5 2.66 -5 3.32 -5 4 C-6.65 4 -8.3 4 -10 4 C-10.33 4.99 -10.66 5.98 -11 7 C-12.32 6.67 -13.64 6.34 -15 6 C-4.25581395 -1.41860465 -4.25581395 -1.41860465 0 0 Z " fill="#D6E1CD" transform="translate(168,224)"/>
<path d="M0 0 C1 3 1 3 1 5 C4.16115776 3.63016497 4.9927092 3.0109362 7 0 C6.9375 2.25 6.9375 2.25 6 5 C3.75134851 6.86135162 1.72017052 7.78061322 -1 9 C-1.99 8.67 -2.98 8.34 -4 8 C-2.68 5.36 -1.36 2.72 0 0 Z " fill="#B4B4B4" transform="translate(220,73)"/>
<path d="M0 0 C1 2 1 2 0.44140625 3.9453125 C0.15136719 4.66460937 -0.13867188 5.38390625 -0.4375 6.125 C-0.72496094 6.84945312 -1.01242188 7.57390625 -1.30859375 8.3203125 C-1.53675781 8.87460937 -1.76492187 9.42890625 -2 10 C-3.65 9.01 -5.3 8.02 -7 7 C-4.66666667 4.66666667 -2.33333333 2.33333333 0 0 Z " fill="#161616" transform="translate(74,54)"/>
<path d="M0 0 C2.8992226 0.46761655 3.86675182 0.86675182 6 3 C5.625 5.125 5.625 5.125 5 7 C3.33388095 7.042721 1.66617115 7.04063832 0 7 C-1 6 -1 6 -1.125 3.5 C-1 1 -1 1 0 0 Z M1 1 C1.33 2.65 1.66 4.3 2 6 C2.99 5.67 3.98 5.34 5 5 C3.68 3.68 2.36 2.36 1 1 Z " fill="#D4D4D4" transform="translate(89,53)"/>
<path d="M0 0 C1.98 0.495 1.98 0.495 4 1 C4 2.65 4 4.3 4 6 C2.35 5.67 0.7 5.34 -1 5 C-0.67 3.35 -0.34 1.7 0 0 Z " fill="#515150" transform="translate(216,155)"/>
<path d="M0 0 C0.66 0 1.32 0 2 0 C1.5020163 3.73487777 1.12508244 5.81237635 -1 9 C-1.99 8.67 -2.98 8.34 -4 8 C-2.66666667 5.33333333 -1.33333333 2.66666667 0 0 Z " fill="#7B7B7B" transform="translate(78,46)"/>
<path d="M0 0 C1.65 0.33 3.3 0.66 5 1 C4.525625 1.7425 4.05125 2.485 3.5625 3.25 C2.22130673 5.61050015 1.487688 7.36648477 1 10 C0.01 9.67 -0.98 9.34 -2 9 C-1.34 6.03 -0.68 3.06 0 0 Z " fill="#DBDBDB" transform="translate(96,40)"/>
<path d="M0 0 C-2.96346786 2.47186455 -5.54041689 3.66248361 -9.25 4.6875 C-10.14203125 4.93886719 -11.0340625 5.19023437 -11.953125 5.44921875 C-12.62859375 5.63097656 -13.3040625 5.81273437 -14 6 C-14 5.34 -14 4.68 -14 4 C-4.58997722 -0.59225513 -4.58997722 -0.59225513 0 0 Z " fill="#212121" transform="translate(75,128)"/>
<path d="M0 0 C1.485 0.99 1.485 0.99 3 2 C5.27912938 2.45394552 5.27912938 2.45394552 7.6875 2.625 C8.49574219 2.69976562 9.30398437 2.77453125 10.13671875 2.8515625 C10.75160156 2.90054688 11.36648437 2.94953125 12 3 C11.67 4.32 11.34 5.64 11 7 C9.53633658 6.60246179 8.0791065 6.18118616 6.625 5.75 C5.81289062 5.51796875 5.00078125 5.2859375 4.1640625 5.046875 C1.54214546 3.7785108 1.00617682 2.67576692 0 0 Z " fill="#9F9F9F" transform="translate(182,66)"/>
<path d="M0 0 C-1.65 1.98 -3.3 3.96 -5 6 C-5.66 5.67 -6.32 5.34 -7 5 C-6.67 4.01 -6.34 3.02 -6 2 C-6.66 2 -7.32 2 -8 2 C-8 1.34 -8 0.68 -8 0 C-5.13822943 -1.43088528 -3.06624227 -0.59991697 0 0 Z " fill="#B7CEA4" transform="translate(127,276)"/>
<path d="M0 0 C0.66 0.33 1.32 0.66 2 1 C0.375 3.9375 0.375 3.9375 -2 7 C-5.25 7.875 -5.25 7.875 -8 8 C-5.58443874 4.80800833 -3.31996462 2.25283313 0 0 Z " fill="#CADABE" transform="translate(151,231)"/>
<path d="M0 0 C0 0.33 0 0.66 0 1 C-2.31 1.33 -4.62 1.66 -7 2 C-7 2.99 -7 3.98 -7 5 C-8.32 5.33 -9.64 5.66 -11 6 C-11 5.01 -11 4.02 -11 3 C-11.66 2.34 -12.32 1.68 -13 1 C-8.59085217 -0.10228696 -4.51617599 -0.07654536 0 0 Z " fill="#93B475" transform="translate(258,205)"/>
<path d="M0 0 C0.54269531 0.3609375 1.08539063 0.721875 1.64453125 1.09375 C2.35996094 1.5578125 3.07539062 2.021875 3.8125 2.5 C4.52019531 2.9640625 5.22789063 3.428125 5.95703125 3.90625 C8.05458124 5.23599375 8.05458124 5.23599375 11 5 C10.67 5.99 10.34 6.98 10 8 C6.6875 7.8125 6.6875 7.8125 3 7 C1.07828158 4.58235424 0 3.11532786 0 0 Z " fill="#232323" transform="translate(83,23)"/>
<path d="M0 0 C0.33 0.66 0.66 1.32 1 2 C0.67 2.66 0.34 3.32 0 4 C4.455 3.505 4.455 3.505 9 3 C6.60236815 5.39763185 5.66726502 5.34280586 2.375 5.625 C1.55773437 5.69976562 0.74046875 5.77453125 -0.1015625 5.8515625 C-0.72804687 5.90054687 -1.35453125 5.94953125 -2 6 C-1.125 1.125 -1.125 1.125 0 0 Z " fill="#DFE6D7" transform="translate(141,272)"/>
<path d="M0 0 C0.33 0 0.66 0 1 0 C0.125 7.75 0.125 7.75 -1 10 C-2.32 9.67 -3.64 9.34 -5 9 C-5 8.01 -5 7.02 -5 6 C-3.68 6 -2.36 6 -1 6 C-0.67 4.02 -0.34 2.04 0 0 Z " fill="#DAE2CF" transform="translate(263,268)"/>
<path d="M0 0 C0.66 0 1.32 0 2 0 C2.66 1.65 3.32 3.3 4 5 C3.01 5.33 2.02 5.66 1 6 C2.32 6 3.64 6 5 6 C5 6.66 5 7.32 5 8 C3.33388095 8.042721 1.66617115 8.04063832 0 8 C-1 7 -1 7 -1.125 4 C-1 1 -1 1 0 0 Z " fill="#CACAC9" transform="translate(151,149)"/>
<path d="M0 0 C0.33 0.99 0.66 1.98 1 3 C1.99 3 2.98 3 4 3 C5.125 6.75 5.125 6.75 4 9 C3.34 8.67 2.68 8.34 2 8 C2.33 7.01 2.66 6.02 3 5 C2.01 5 1.02 5 0 5 C0 5.99 0 6.98 0 8 C-0.66 7.67 -1.32 7.34 -2 7 C-1.34 4.69 -0.68 2.38 0 0 Z " fill="#3A3A39" transform="translate(118,122)"/>
<path d="M0 0 C0.33 0.66 0.66 1.32 1 2 C-0.70625501 4.78388975 -1.47626739 5.85384206 -4.6875 6.75 C-5.8321875 6.87375 -5.8321875 6.87375 -7 7 C-5.54744301 3.17053157 -3.57104439 1.87949705 0 0 Z " fill="#4B4B4B" transform="translate(43,143)"/>
<path d="M0 0 C0.66 0.33 1.32 0.66 2 1 C0.9375 3.4375 0.9375 3.4375 -1 6 C-4.6875 6.8125 -4.6875 6.8125 -8 7 C-5.4837822 4.39391727 -2.94865641 2.10618315 0 0 Z " fill="#D0DDC4" transform="translate(206,238)"/>
<path d="M0 0 C1.23556641 0.01740234 1.23556641 0.01740234 2.49609375 0.03515625 C3.32238281 0.04417969 4.14867187 0.05320313 5 0.0625 C5.63808594 0.07410156 6.27617187 0.08570313 6.93359375 0.09765625 C6.93359375 0.42765625 6.93359375 0.75765625 6.93359375 1.09765625 C2.06033275 2.68892515 -1.87431221 3.30957846 -7.06640625 3.09765625 C-6.42703125 2.78828125 -5.78765625 2.47890625 -5.12890625 2.16015625 C-1.03016727 0.04868465 -1.03016727 0.04868465 0 0 Z " fill="#D6E1CB" transform="translate(154.06640625,253.90234375)"/>
<path d="M0 0 C0.99 0.33 1.98 0.66 3 1 C2.34 1 1.68 1 1 1 C1 2.32 1 3.64 1 5 C1.99 4.67 2.98 4.34 4 4 C4 4.99 4 5.98 4 7 C2.35 6.67 0.7 6.34 -1 6 C-1.042721 4.33388095 -1.04063832 2.66617115 -1 1 C-0.67 0.67 -0.34 0.34 0 0 Z " fill="#6D6D6C" transform="translate(195,165)"/>
<path d="M0 0 C0.33 0.66 0.66 1.32 1 2 C0.0625 4.125 0.0625 4.125 -1 6 C-2.98 6 -4.96 6 -7 6 C-5.62209707 3.24419414 -3.62850007 2.51138754 -1 1 C-0.67 0.67 -0.34 0.34 0 0 Z " fill="#CBDAC1" transform="translate(238,209)"/>
<path d="M0 0 C2.97 0.495 2.97 0.495 6 1 C5.01 2.485 5.01 2.485 4 4 C4 3.34 4 2.68 4 2 C3.01 2.66 2.02 3.32 1 4 C0.01 4 -0.98 4 -2 4 C-1.34 2.68 -0.68 1.36 0 0 Z " fill="#ACC499" transform="translate(241,206)"/>
<path d="M0 0 C1.32 0 2.64 0 4 0 C4 0.99 4 1.98 4 3 C3.01 3.33 2.02 3.66 1 4 C1.66 4.66 2.32 5.32 3 6 C1.68 5.67 0.36 5.34 -1 5 C-0.67 3.35 -0.34 1.7 0 0 Z " fill="#353535" transform="translate(180,164)"/>
<path d="M0 0 C0.66 0.66 1.32 1.32 2 2 C-3.94 2.495 -3.94 2.495 -10 3 C-5.82431815 -0.13176139 -4.92670782 -0.53551172 0 0 Z " fill="#2D2D2D" transform="translate(89,124)"/>
<path d="M0 0 C0.99 0 1.98 0 3 0 C3 1.98 3 3.96 3 6 C1.0625 5.625 1.0625 5.625 -1 5 C-1.33 4.34 -1.66 3.68 -2 3 C-1.34 3 -0.68 3 0 3 C0 2.01 0 1.02 0 0 Z " fill="#B7B7B7" transform="translate(118,127)"/>
<path d="M0 0 C3.3 0.33 6.6 0.66 10 1 C10 1.99 10 2.98 10 4 C9.67 3.67 9.34 3.34 9 3 C5.33655389 2.86431681 2.49384279 2.83538574 -1 4 C-0.67 2.68 -0.34 1.36 0 0 Z " fill="#C8C8C8" transform="translate(85,36)"/>
<path d="M0 0 C2.4375 0.8125 2.4375 0.8125 5 2 C5.33 2.99 5.66 3.98 6 5 C3.03 4.505 3.03 4.505 0 4 C0 2.68 0 1.36 0 0 Z " fill="#D0D0D0" transform="translate(100,28)"/>
<path d="M0 0 C-4.75 4 -4.75 4 -7 4 C-7 2.68 -7 1.36 -7 0 C-2.25 -1.125 -2.25 -1.125 0 0 Z " fill="#C6D5B8" transform="translate(220,296)"/>
<path d="M0 0 C0.6875 1.8125 0.6875 1.8125 1 4 C-0.4375 5.75 -0.4375 5.75 -2 7 C-2.33 5.35 -2.66 3.7 -3 2 C-2.01 1.34 -1.02 0.68 0 0 Z " fill="#181818" transform="translate(45,99)"/>
<path d="M0 0 C0.66 0.33 1.32 0.66 2 1 C1.67 2.32 1.34 3.64 1 5 C-0.32 5.33 -1.64 5.66 -3 6 C-1.125 1.125 -1.125 1.125 0 0 Z " fill="#BED1B1" transform="translate(113,266)"/>
</svg>
